<svg width="13" height="16" viewBox="0 0 13 16" version="1.1" xmlns="http://www.w3.org/2000/svg" xmlns:xlink="http://www.w3.org/1999/xlink">
<title>Vector</title>
<desc>Created using Figma</desc>
<g id="Canvas" transform="translate(6874 -1677)">
<g id="Vector">
<use xlink:href="#path0_fill" transform="translate(-6874 1677)"/>
</g>
</g>
<defs>
<path id="path0_fill" d="M 12.7841 13.8671L 11.8634 3.49079C 11.8468 3.28545 11.6746 3.12979 11.4659 3.12979L 9.52515 3.12979C 9.52184 1.40426 8.11757 0 6.39205 0C 4.66653 0 3.26226 1.40426 3.25895 3.12979L 1.31815 3.12979C 1.11281 3.12979 0.940592 3.28545 0.92072 3.49079L -2.52681e-08 13.8671C -2.52681e-08 13.8804 -2.52681e-08 13.8903 -2.52681e-08 13.9035C -2.52681e-08 15.0594 1.06313 16 2.36804 16L 10.4161 16C 11.721 16 12.7841 15.0594 12.7841 13.9035C 12.7841 13.8903 12.7841 13.8804 12.7841 13.8671ZM 6.39205 0.794866C 7.6804 0.794866 8.72697 1.84144 8.73028 3.12979L 4.05382 3.12979C 4.05713 1.84144 5.1037 0.794866 6.39205 0.794866ZM 10.4161 15.2018L 2.36804 15.2018C 1.50693 15.2018 0.804802 14.6289 0.794867 13.9168L 1.68247 3.92465L 3.25895 3.92465L 3.25895 5.31898C 3.25895 5.53757 3.4378 5.71641 3.65639 5.71641C 3.87497 5.71641 4.05382 5.53757 4.05382 5.31898L 4.05382 3.92465L 8.73028 3.92465L 8.73028 5.31898C 8.73028 5.53757 8.90913 5.71641 9.12772 5.71641C 9.3463 5.71641 9.52515 5.53757 9.52515 5.31898L 9.52515 3.92465L 11.1016 3.92465L 11.9892 13.9201C 11.9793 14.6289 11.2772 15.2018 10.4161 15.2018Z"/>
</defs>
</svg>
