<svg width="16" height="16" viewBox="0 0 16 16" version="1.1" xmlns="http://www.w3.org/2000/svg" xmlns:xlink="http://www.w3.org/1999/xlink">
<title>coin</title>
<desc>Created using Figma</desc>
<g id="Canvas" transform="translate(6058 3106)">
<g id="coin">
<g id="Vector">
<use xlink:href="#path0_fill" transform="translate(-6052.3 -3102.26)" fill="#27272B"/>
</g>
<g id="Vector">
<use xlink:href="#path1_fill" transform="translate(-6058 -3106)" fill="#27272B"/>
</g>
</g>
</g>
<defs>
<path id="path0_fill" d="M 2.90043 3.85021L 1.71234 3.85021C 1.21872 3.85021 0.817021 3.44851 0.817021 2.95489C 0.817021 2.46128 1.21872 2.05957 1.71234 2.05957L 3.80936 2.05957C 4.03404 2.05957 4.21787 1.87574 4.21787 1.65106C 4.21787 1.42638 4.03404 1.24255 3.80936 1.24255L 2.7166 1.24255L 2.7166 0.408511C 2.7166 0.18383 2.53277 5.19448e-08 2.30809 5.19448e-08C 2.0834 5.19448e-08 1.89957 0.18383 1.89957 0.408511L 1.89957 1.24255L 1.71234 1.24255C 0.769362 1.24255 1.0389e-07 2.01191 1.0389e-07 2.95489C 1.0389e-07 3.89787 0.769362 4.66723 1.71234 4.66723L 2.90043 4.66723C 3.39404 4.66723 3.79574 5.06894 3.79574 5.56255C 3.79574 6.05617 3.39404 6.45787 2.90043 6.45787L 0.765958 6.45787C 0.541277 6.45787 0.357447 6.6417 0.357447 6.86638C 0.357447 7.09106 0.541277 7.27489 0.765958 7.27489L 1.89617 7.27489L 1.89617 8.12596C 1.89617 8.35064 2.08 8.53447 2.30468 8.53447C 2.52936 8.53447 2.71319 8.35064 2.71319 8.12596L 2.71319 7.27489L 2.91064 7.27489C 2.91404 7.27489 2.91745 7.27489 2.92085 7.27489C 3.85362 7.26128 4.60936 6.49872 4.60936 5.56255C 4.60936 4.61617 3.8434 3.85021 2.90043 3.85021Z"/>
<path id="path1_fill" d="M 13.6579 2.34213C 12.1464 0.830638 10.1379 0 8 0C 5.86213 0 3.85362 0.830638 2.34213 2.34213C 0.830638 3.85362 0 5.86213 0 8C 0 10.1379 0.830638 12.1464 2.34213 13.6579C 3.85362 15.1694 5.86213 16 8 16C 10.1379 16 12.1464 15.1694 13.6579 13.6579C 15.1694 12.1464 16 10.1379 16 8C 16 5.86213 15.1694 3.85362 13.6579 2.34213ZM 8 15.183C 4.04085 15.183 0.817021 11.9591 0.817021 8C 0.817021 4.04085 4.04085 0.817021 8 0.817021C 11.9591 0.817021 15.183 4.04085 15.183 8C 15.183 11.9591 11.9591 15.183 8 15.183Z"/>
</defs>
</svg>
