<svg width="12" height="12" viewBox="0 0 12 12" version="1.1" xmlns="http://www.w3.org/2000/svg" xmlns:xlink="http://www.w3.org/1999/xlink">
<title>exit</title>
<desc>Created using Figma</desc>
<g id="Canvas" transform="translate(6874 -1761)">
<g id="exit">
<use xlink:href="#path0_fill" transform="translate(-6874 1761)"/>
</g>
</g>
<defs>
<path id="path0_fill" fill-rule="evenodd" d="M 5.62207 12L 0.374023 12C 0.282227 12 0.197754 11.9667 0.132324 11.9115C 0.0512695 11.8429 0 11.7404 0 11.6259L 0 0.374146C 0 0.167603 0.16748 0 0.374023 0L 5.62598 0C 5.83252 0 6 0.167603 6 0.374146C 6 0.580688 5.83252 0.748291 5.62598 0.748291L 0.751953 0.748291L 0.751953 11.2517L 5.62207 11.2517C 5.82861 11.2517 5.99609 11.4193 5.99609 11.6259C 5.99609 11.7775 5.90576 11.9081 5.77588 11.9669C 5.729 11.9882 5.67676 12 5.62207 12ZM 8.90332 8.88916C 8.76123 8.74146 8.76123 8.50427 8.90332 8.35645L 10.7739 6.37329L 3.35938 6.37329C 3.25781 6.37329 3.16602 6.32947 3.10107 6.25867C 3.03857 6.19104 3 6.09863 3 5.99609C 3 5.79004 3.16064 5.6189 3.35938 5.6189L 10.7739 5.6189L 8.90332 3.64355C 8.76123 3.49963 8.76123 3.25854 8.90332 3.11084C 9.04199 2.96301 9.27002 2.96301 9.41211 3.11084L 11.896 5.73169C 12.0347 5.87952 12.0347 6.12439 11.896 6.26831L 9.41211 8.88916C 9.27393 9.03699 9.04541 9.03699 8.90332 8.88916Z"/>
</defs>
</svg>
