<svg width="30" height="30" viewBox="0 0 30 30" version="1.1" xmlns="http://www.w3.org/2000/svg" xmlns:xlink="http://www.w3.org/1999/xlink">
<title>Vector</title>
<desc>Created using Figma</desc>
<g id="Canvas" transform="translate(6199 -2775)">
<g id="Vector">
<use xlink:href="#path0_fill" transform="translate(-6199 2775)" fill="#3C5A9A"/>
</g>
</g>
<defs>
<path id="path0_fill" d="M 14.8289 -5.72205e-10C 6.63862 -5.72205e-10 1.81017e-08 6.7152 1.81017e-08 15C 1.81017e-08 23.2848 6.63862 30 14.8289 30C 23.0193 30 29.6579 23.2848 29.6579 15C 29.6579 6.7152 23.0193 -5.72205e-10 14.8289 -5.72205e-10ZM 19.4105 14.8764L 16.5906 14.8764L 16.5906 25.3956L 12.3187 25.3956L 12.3187 14.9448L 9.99352 14.9448L 9.99352 11.3148L 12.2487 11.3148C 12.2487 10.2408 12.2582 9.288 12.2487 8.292C 12.2487 5.4336 14.4173 4.6044 16.3664 4.6044L 19.6513 4.6044L 19.6525 4.6044L 19.6525 8.19C 19.3761 8.1912 18.3013 8.19 17.7485 8.19C 17.6785 8.19 16.5171 8.1252 16.5171 9.2544C 16.5242 9.7152 16.5171 11.304 16.5171 11.304L 19.6655 11.304L 19.4105 14.8764Z"/>
</defs>
</svg>
