<svg width="26" height="25" viewBox="0 0 26 25" version="1.1" xmlns="http://www.w3.org/2000/svg" xmlns:xlink="http://www.w3.org/1999/xlink">
<title>Group 2</title>
<desc>Created using Figma</desc>
<g id="Canvas" transform="translate(5980 -2718)">
<g id="Group 2">
<g id="Vector">
<use xlink:href="#path0_fill" transform="translate(-5979.58 2718)" fill="#FFFFFF"/>
<mask id="mask0_outline_ins">
<use xlink:href="#path0_fill" fill="white" transform="translate(-5979.58 2718)"/>
</mask>
<g mask="url(#mask0_outline_ins)">
<use xlink:href="#path1_stroke_2x" transform="translate(-5979.58 2718)" fill="#27272B"/>
</g>
</g>
<g id="Union">
<use xlink:href="#path2_fill" transform="translate(-5974.92 2722.36)" fill="#27272B"/>
</g>
</g>
</g>
<defs>
<path id="path0_fill" d="M 12.5 25C 19.4036 25 25 19.4036 25 12.5C 25 5.59644 19.4036 0 12.5 0C 5.59644 0 0 5.59644 0 12.5C 0 19.4036 5.59644 25 12.5 25Z"/>
<path id="path1_stroke_2x" d="M 24 12.5C 24 18.8513 18.8513 24 12.5 24L 12.5 26C 19.9558 26 26 19.9558 26 12.5L 24 12.5ZM 12.5 24C 6.14873 24 1 18.8513 1 12.5L -1 12.5C -1 19.9558 5.04416 26 12.5 26L 12.5 24ZM 1 12.5C 1 6.14873 6.14873 1 12.5 1L 12.5 -1C 5.04416 -1 -1 5.04416 -1 12.5L 1 12.5ZM 12.5 1C 18.8513 1 24 6.14873 24 12.5L 26 12.5C 26 5.04416 19.9558 -1 12.5 -1L 12.5 1Z"/>
<path id="path2_fill" fill-rule="evenodd" d="M 11.376 16.2708L 4.72412 16.2708C 3.47119 16.2708 2.26953 15.7812 1.38379 14.9102C 0.497559 14.0388 0 12.8572 0 11.625L 0 4.64575C 0 3.41357 0.497559 2.23193 1.38379 1.36084C 2.26953 0.489502 3.47119 0 4.72412 0L 11.376 0C 12.6289 0 13.8306 0.489502 14.7163 1.36084C 15.6021 2.23193 16.1001 3.41357 16.1001 4.64575L 16.1001 11.625C 16.1001 12.8572 15.6021 14.0388 14.7163 14.9102C 13.8306 15.7812 12.6289 16.2708 11.376 16.2708ZM 4.72412 1.177C 3.78857 1.177 2.8916 1.54248 2.22998 2.19312C 1.56836 2.84351 1.19678 3.72583 1.19678 4.64575L 1.19678 11.625C 1.19678 12.5449 1.56836 13.4272 2.22998 14.0779C 2.8916 14.7283 3.78857 15.0938 4.72412 15.0938L 11.376 15.0938C 12.3115 15.0938 13.2085 14.7283 13.8701 14.0779C 14.5312 13.4272 14.9033 12.5449 14.9033 11.625L 14.9033 4.64575C 14.9033 3.72583 14.5312 2.84351 13.8701 2.19312C 13.2085 1.54248 12.3115 1.177 11.376 1.177L 4.72412 1.177ZM 8.0498 12.3022C 6.92627 12.3022 5.84863 11.8633 5.0542 11.082C 4.25977 10.3005 3.81299 9.24072 3.81299 8.13574C 3.80811 7.56689 3.91895 7.00293 4.13916 6.47705C 4.35938 5.95093 4.68408 5.47363 5.09473 5.07324C 5.4873 4.70459 5.95117 4.41675 6.45898 4.22729C 6.96631 4.0376 7.50732 3.94971 8.0498 3.96899C 8.61523 3.93555 9.18115 4.02051 9.71094 4.21802C 10.2402 4.41553 10.7207 4.72144 11.1216 5.11523C 11.522 5.50903 11.8325 5.98169 12.0337 6.50244C 12.2344 7.02319 12.3208 7.57983 12.2866 8.13574C 12.2866 9.24072 11.8403 10.3005 11.0459 11.082C 10.2515 11.8633 9.17383 12.3022 8.0498 12.3022ZM 7.94385 5.10449C 7.19092 5.10498 6.46826 5.39697 5.93164 5.91699C 5.86621 5.98071 5.80371 6.04712 5.74414 6.11597C 5.6792 6.19141 5.61768 6.26978 5.56055 6.35083C 5.43115 6.53271 5.32178 6.72803 5.23438 6.93359C 5.07275 7.31445 4.98926 7.7229 4.98877 8.13574C 4.96436 8.54517 5.02539 8.95532 5.16748 9.34082C 5.19531 9.41577 5.22607 9.48975 5.25928 9.56201C 5.28027 9.60718 5.30225 9.65161 5.3252 9.69556C 5.3877 9.81421 5.45801 9.92871 5.53613 10.0381C 5.62109 10.1577 5.71533 10.2712 5.81738 10.3779C 6.10352 10.6763 6.44873 10.9141 6.83203 11.0767C 6.99268 11.145 7.15869 11.1995 7.32812 11.2395C 7.5625 11.2949 7.80273 11.323 8.04492 11.323C 8.46191 11.323 8.87451 11.2393 9.25781 11.0767C 9.64062 10.9141 9.98584 10.6763 10.272 10.3779C 10.5581 10.0793 10.7793 9.72656 10.9219 9.34082C 11.064 8.95532 11.125 8.54517 11.1006 8.13574C 11.1187 7.94775 11.1167 7.75903 11.0957 7.57251C 11.0718 7.35718 11.0225 7.14478 10.9478 6.9397C 10.8086 6.55688 10.5859 6.20874 10.2949 5.91968C 10.0039 5.63062 9.65234 5.40796 9.26465 5.26709C 8.87646 5.12622 8.46191 5.07056 8.0498 5.10449L 7.94385 5.10449ZM 13.5786 3.66675C 13.5786 4.22461 13.1187 4.677 12.5513 4.677C 11.9839 4.677 11.5239 4.22461 11.5239 3.66675C 11.5239 3.10864 11.9839 2.65625 12.5513 2.65625C 13.1187 2.65625 13.5786 3.10864 13.5786 3.66675Z"/>
</defs>
</svg>
