<svg width="25" height="25" viewBox="0 0 25 25" version="1.1" xmlns="http://www.w3.org/2000/svg" xmlns:xlink="http://www.w3.org/1999/xlink">
<title>Vector</title>
<desc>Created using Figma</desc>
<g id="Canvas" transform="translate(6156 -2718)">
<rect x="-6156" y="2718" width="25" height="25" fill="#E5E5E5"/>
<g id="UI">
<path d="M -7171 438L -4643 438L -4643 3620L -7171 3620L -7171 438Z" fill="#FFFFFF"/>
<g id="Our Social">
<g id="normal">
<g id="Group 2">
<g id="Vector">
<use xlink:href="#path0_fill" transform="translate(-6156 2718)" fill="#27272B"/>
</g>
<g id="Union">
<use xlink:href="#path1_fill" transform="translate(-6151.34 2722.36)" fill="#FFFFFF"/>
</g>
</g>
</g>
</g>
</g>
</g>
<defs>
<path id="path0_fill" d="M 12.5 25C 19.4036 25 25 19.4036 25 12.5C 25 5.59644 19.4036 0 12.5 0C 5.59644 0 0 5.59644 0 12.5C 0 19.4036 5.59644 25 12.5 25Z"/>
<path id="path1_fill" fill-rule="evenodd" d="M 11.376 16.2708L 4.72412 16.2708C 3.47119 16.2708 2.26953 15.7812 1.38379 14.9102C 0.497559 14.0388 0 12.8572 0 11.625L 0 4.64575C 0 3.41357 0.497559 2.23193 1.38379 1.36084C 2.26953 0.489502 3.47119 0 4.72412 0L 11.376 0C 12.6289 0 13.8306 0.489502 14.7163 1.36084C 15.6021 2.23193 16.1001 3.41357 16.1001 4.64575L 16.1001 11.625C 16.1001 12.8572 15.6021 14.0388 14.7163 14.9102C 13.8306 15.7812 12.6289 16.2708 11.376 16.2708ZM 4.72412 1.177C 3.78857 1.177 2.8916 1.54248 2.22998 2.19312C 1.56836 2.84351 1.19678 3.72583 1.19678 4.64575L 1.19678 11.625C 1.19678 12.0332 1.27002 12.4341 1.40918 12.8105C 1.5415 13.1694 1.73438 13.5061 1.98096 13.8059C 2.05859 13.9004 2.1416 13.9912 2.22998 14.0779C 2.8916 14.7283 3.78857 15.0938 4.72412 15.0938L 11.376 15.0938C 12.3115 15.0938 13.2085 14.7283 13.8701 14.0779C 14.5312 13.4272 14.9033 12.5449 14.9033 11.625L 14.9033 4.64575C 14.9033 3.72583 14.5312 2.84351 13.8701 2.19312C 13.2085 1.54248 12.3115 1.177 11.376 1.177L 4.72412 1.177ZM 8.0498 12.3022C 6.92627 12.3022 5.84863 11.8633 5.0542 11.082C 4.25977 10.3005 3.81299 9.24072 3.81299 8.13574C 3.80811 7.56689 3.91895 7.00293 4.13916 6.47705C 4.35938 5.95093 4.68408 5.47363 5.09473 5.07324C 5.33154 4.85083 5.59424 4.65796 5.87695 4.49805C 6.06299 4.39307 6.25732 4.30249 6.45898 4.22729C 6.96631 4.0376 7.50732 3.94971 8.0498 3.96899C 8.61523 3.93555 9.18115 4.02051 9.71094 4.21802C 10.2402 4.41553 10.7207 4.72144 11.1216 5.11523C 11.522 5.50903 11.8325 5.98169 12.0337 6.50244C 12.1455 6.79297 12.2222 7.09473 12.2617 7.40112C 12.2935 7.64404 12.3018 7.88989 12.2866 8.13574C 12.2866 9.24072 11.8403 10.3005 11.0459 11.082C 10.2515 11.8633 9.17383 12.3022 8.0498 12.3022ZM 7.94385 5.10449C 7.19092 5.10498 6.46826 5.39697 5.93164 5.91699C 5.6333 6.20728 5.39648 6.55273 5.23438 6.93359C 5.17578 7.07129 5.12744 7.21265 5.08984 7.35669C 5.02344 7.6106 4.98926 7.87231 4.98877 8.13574C 4.98486 8.20239 4.98291 8.26904 4.9834 8.33521C 4.98389 8.37354 4.98486 8.41187 4.98682 8.4502C 5.00098 8.75391 5.06201 9.0542 5.16748 9.34082C 5.24023 9.53809 5.33398 9.72681 5.44629 9.90405C 5.55322 10.0732 5.67773 10.2319 5.81738 10.3779C 6.10352 10.6763 6.44873 10.9141 6.83203 11.0767C 7.21484 11.2393 7.62744 11.323 8.04492 11.323C 8.26807 11.323 8.49023 11.2988 8.70703 11.2517C 8.89502 11.2107 9.07959 11.1521 9.25781 11.0767C 9.64062 10.9141 9.98584 10.6763 10.272 10.3779C 10.4277 10.2153 10.5645 10.0366 10.6797 9.84521C 10.7759 9.68506 10.8569 9.51636 10.9219 9.34082C 11.064 8.95532 11.125 8.54517 11.1006 8.13574C 11.1392 7.73096 11.0869 7.32251 10.9478 6.9397C 10.8677 6.71875 10.7593 6.50952 10.6265 6.31641C 10.5693 6.23364 10.5078 6.15381 10.4419 6.07715C 10.395 6.02295 10.3462 5.97046 10.2949 5.91968C 10.0039 5.63062 9.65234 5.40796 9.26465 5.26709C 8.87646 5.12622 8.46191 5.07056 8.0498 5.10449L 7.94385 5.10449ZM 13.5786 3.66675C 13.5786 4.22461 13.1187 4.677 12.5513 4.677C 11.9839 4.677 11.5239 4.22461 11.5239 3.66675C 11.5239 3.10864 11.9839 2.65625 12.5513 2.65625C 13.1187 2.65625 13.5786 3.10864 13.5786 3.66675Z"/>
</defs>
</svg>
