<svg width="30" height="30" viewBox="0 0 30 30" version="1.1" xmlns="http://www.w3.org/2000/svg" xmlns:xlink="http://www.w3.org/1999/xlink">
<title>svg-icon-social-network-instagram</title>
<desc>Created using Figma</desc>
<g id="Canvas" transform="translate(6068 -2775)">
<g id="svg-icon-social-network-instagram">
<g id="Vector">
<use xlink:href="#path0_fill" transform="translate(-6067.66 2775)" fill="url(#paint0_radial)"/>
</g>
<g id="Vector">
<use xlink:href="#path1_fill" transform="translate(-6062.22 2780.24)" fill="#FFFFFF"/>
</g>
<g id="Vector">
<use xlink:href="#path2_fill" transform="translate(-6057.77 2784.99)" fill="#FFFFFF"/>
</g>
<g id="Vector">
<use xlink:href="#path3_fill" transform="translate(-6048.78 2783.42)" fill="#FFFFFF"/>
</g>
</g>
</g>
<defs>
<radialGradient id="paint0_radial" cx="0.5" cy="0.5" r="0.5" gradientUnits="userSpaceOnUse" gradientTransform="matrix(59.7853 0 0 60.475 -21.2672 -0.3125)">
<stop offset="0" stop-color="#FFD676"/>
<stop offset="0.25" stop-color="#F2A454"/>
<stop offset="0.38" stop-color="#F05C3C"/>
<stop offset="0.7" stop-color="#C22F86"/>
<stop offset="0.96" stop-color="#6666AD"/>
<stop offset="0.99" stop-color="#5C6CB2"/>
</radialGradient>
<path id="path0_fill" d="M 14.8289 30C 23.0187 30 29.6579 23.2843 29.6579 15C 29.6579 6.71573 23.0187 0 14.8289 0C 6.63914 0 0 6.71573 0 15C 0 23.2843 6.63914 30 14.8289 30Z"/>
<path id="path1_fill" d="M 13.2719 19.525L 5.51142 19.525C 4.0497 19.525 2.64785 18.9376 1.61426 17.8921C 0.580666 16.8466 1.1785e-07 15.4286 1.1785e-07 13.95L 1.1785e-07 5.575C 1.1785e-07 4.09642 0.580666 2.67839 1.61426 1.63288C 2.64785 0.587364 4.0497 7.15256e-08 5.51142 7.15256e-08L 13.2719 7.15256e-08C 14.7336 7.15256e-08 16.1355 0.587364 17.1691 1.63288C 18.2027 2.67839 18.7833 4.09642 18.7833 5.575L 18.7833 13.95C 18.7833 15.4286 18.2027 16.8466 17.1691 17.8921C 16.1355 18.9376 14.7336 19.525 13.2719 19.525ZM 5.51142 1.4125C 4.42005 1.4125 3.37337 1.85105 2.60166 2.63167C 1.82994 3.41229 1.39639 4.47104 1.39639 5.575L 1.39639 13.95C 1.39639 15.054 1.82994 16.1127 2.60166 16.8933C 3.37337 17.674 4.42005 18.1125 5.51142 18.1125L 13.2719 18.1125C 14.3633 18.1125 15.4099 17.674 16.1817 16.8933C 16.9534 16.1127 17.3869 15.054 17.3869 13.95L 17.3869 5.575C 17.3869 4.47104 16.9534 3.41229 16.1817 2.63167C 15.4099 1.85105 14.3633 1.4125 13.2719 1.4125L 5.51142 1.4125Z"/>
<path id="path2_fill" d="M 4.94317 10.0085C 3.63221 10.0085 2.37495 9.48173 1.44796 8.54405C 0.52097 7.60637 0.000193222 6.3346 0.000193222 5.00851C -0.00570659 4.326 0.123558 3.64921 0.380363 3.01804C 0.637168 2.38687 1.01631 1.8141 1.49544 1.33351C 1.95361 0.89107 2.49471 0.545891 3.08684 0.318328C 3.67897 0.0907649 4.31016 -0.0145768 4.94317 0.00851388C 5.60263 -0.0315843 6.263 0.0702745 6.88068 0.307364C 7.49835 0.544454 8.05928 0.911382 8.52643 1.38392C 8.99358 1.85646 9.35632 2.42386 9.59071 3.04866C 9.8251 3.67346 9.92579 4.34145 9.88615 5.00851C 9.88615 6.3346 9.36538 7.60637 8.43839 8.54405C 7.5114 9.48173 6.25413 10.0085 4.94317 10.0085ZM 4.8196 1.37101C 3.94081 1.37181 3.09754 1.72199 2.47168 2.34601C 2.12363 2.69436 1.84724 3.10899 1.65847 3.56597C 1.4697 4.02296 1.37229 4.51324 1.37187 5.00851C 1.34325 5.49995 1.41424 5.99212 1.58047 6.4548C 1.7467 6.91749 2.00466 7.34092 2.33852 7.69911C 2.67238 8.0573 3.0751 8.34268 3.52194 8.53774C 3.96878 8.7328 4.45032 8.83342 4.93699 8.83342C 5.42367 8.83342 5.90521 8.7328 6.35205 8.53774C 6.79889 8.34268 7.20161 8.0573 7.53547 7.69911C 7.86933 7.34092 8.12729 6.91749 8.29352 6.4548C 8.45975 5.99212 8.53073 5.49995 8.50212 5.00851C 8.54714 4.52271 8.48631 4.03283 8.32392 3.57338C 8.16152 3.11393 7.90151 2.69609 7.5622 2.34928C 7.22288 2.00248 6.81252 1.73515 6.36002 1.56613C 5.90751 1.39711 5.42388 1.33051 4.94317 1.37101L 4.8196 1.37101Z"/>
<path id="path3_fill" d="M 1.19867 2.425C 1.86068 2.425 2.39734 1.88214 2.39734 1.2125C 2.39734 0.542855 1.86068 0 1.19867 0C 0.536664 0 0 0.542855 0 1.2125C 0 1.88214 0.536664 2.425 1.19867 2.425Z"/>
</defs>
</svg>
