<svg width="155" height="32" viewBox="0 0 155 32" version="1.1" xmlns="http://www.w3.org/2000/svg" xmlns:xlink="http://www.w3.org/1999/xlink">
<title>LOGO</title>
<desc>Created using Figma</desc>
<g id="Canvas" transform="translate(6712 3115)">
<g id="LOGO">
<g id="Vector">
<use xlink:href="#path0_fill" transform="translate(-6635.25 -3115)" fill="#020202"/>
</g>
<g id="Vector">
<use xlink:href="#path1_fill" transform="translate(-6666.63 -3106.55)" fill="#020202"/>
</g>
<g id="Vector">
<use xlink:href="#path2_fill" transform="translate(-6696.59 -3106.55)" fill="#020202"/>
</g>
<g id="Vector">
<use xlink:href="#path3_fill" transform="translate(-6609.42 -3106.47)" fill="#020202"/>
</g>
<g id="Vector">
<use xlink:href="#path4_fill" transform="translate(-6580.27 -3114.96)" fill="#020202"/>
</g>
<g id="Vector">
<use xlink:href="#path5_fill" transform="translate(-6712 -3115)" fill="#020202"/>
</g>
<g id="Vector">
<use xlink:href="#path6_fill" transform="translate(-6564.43 -3090.85)" fill="#FB4247"/>
</g>
</g>
</g>
<defs>
<path id="path0_fill" d="M 22.2769 31.399C 19.6657 31.399 17.2993 31.399 14.9329 31.399C 14.4433 31.399 14.1985 31.1004 13.9537 30.7592C 11.5465 28.0293 9.18005 25.2994 6.81364 22.5695C 6.60963 22.3562 6.40563 22.1003 6.03843 21.7164C 6.03843 24.7875 5.99763 27.5601 6.07923 30.3753C 6.07923 31.2284 5.83443 31.4416 5.05923 31.399C 3.63122 31.3137 2.20321 31.3563 0.775204 31.399C 0.244801 31.399 2.49025e-06 31.3563 2.49025e-06 30.6739C 0.0408027 20.6927 2.49025e-06 10.7115 2.49025e-06 0.730299C 2.49025e-06 0.175789 0.122402 0.00517054 0.693605 0.00517054C 2.20321 0.0478252 3.67202 0.0478252 5.18163 0.00517054C 5.91603 -0.0374841 6.07923 0.175789 6.07923 0.943573C 6.03843 5.93416 6.07923 10.8821 6.07923 15.8727C 6.07923 16.2139 6.07923 16.5552 6.07923 16.9391C 6.48723 16.9391 6.60963 16.5978 6.81364 16.3846C 8.89445 14.1239 10.9345 11.8632 12.9745 9.55981C 13.3009 9.21857 13.5865 9.0053 14.0761 9.0053C 16.2385 9.04795 18.4009 9.0053 20.6041 9.0053C 20.6449 9.4745 20.2777 9.60246 20.0737 9.85839C 17.5033 12.6736 14.9329 15.5315 12.2809 18.304C 11.7097 18.9012 11.5873 19.2424 12.2401 19.9249C 15.5449 23.6358 18.8089 27.4321 22.2769 31.399Z"/>
<path id="path1_fill" d="M 11.8748 -3.25429e-07C 17.9949 -3.25429e-07 22.5645 3.83892 23.6253 9.85322C 24.7677 16.5073 19.9533 22.9482 13.466 23.3747C 10.9364 23.5454 8.44761 23.3747 6.12199 22.1378C 1.47077 19.6638 -0.85484 14.4599 0.287566 9.00013C 1.30757 4.05219 5.71399 0.298582 10.6508 0.0426545C 11.0588 0.0853091 11.4668 0.0426543 11.8748 -3.25429e-07ZM 5.9588 11.6874C 5.9588 15.313 8.44761 18.0003 11.8748 18.0003C 15.1796 18.0003 17.7909 15.313 17.7909 11.9006C 17.7909 8.14704 15.3428 5.50245 11.8748 5.50245C 8.48841 5.50245 5.9588 8.14704 5.9588 11.6874Z"/>
<path id="path2_fill" d="M 11.8407 0.000363506C 17.8384 -0.0422911 22.408 3.66866 23.5504 9.51235C 24.8968 16.3797 20.0824 22.9059 13.3911 23.3751C 10.8615 23.5457 8.4543 23.3751 6.16949 22.1381C 1.51827 19.7068 -0.807346 14.5882 0.25346 9.12846C 1.19186 4.18052 5.63909 0.341601 10.6167 0.0856731C 11.0247 0.0856731 11.4327 0.0430181 11.8407 0.000363506ZM 17.7568 11.8584C 17.7568 8.10474 15.2271 5.46016 11.7999 5.50281C 8.3727 5.54547 5.92469 8.19005 5.92469 11.773C 5.92469 15.3987 8.4951 18.0433 11.8815 18.0006C 15.2679 17.958 17.7976 15.3134 17.7568 11.8584Z"/>
<path id="path3_fill" d="M 20.0642 16.3439C 20.0642 17.6661 20.0234 18.9884 20.105 20.3107C 20.1458 21.0785 19.8194 21.4624 19.2482 21.8036C 17.0858 22.998 14.7602 23.4245 12.3938 23.4672C 8.27295 23.5525 4.64174 22.2302 2.15293 18.6472C -0.458282 14.8509 -0.580686 10.6708 1.17372 6.53329C 2.88733 2.52375 5.98815 0.433675 10.2722 0.0497833C 17.2082 -0.590036 21.1658 5.04038 21.4514 11.012C 21.5738 13.486 21.533 13.486 19.2074 13.486C 15.1274 13.486 11.0474 13.5286 6.96735 13.486C 6.11055 13.486 6.06975 13.7419 6.39615 14.4244C 7.49776 16.8557 9.53777 17.7515 11.9042 18.05C 14.5562 18.3486 17.0858 17.8368 19.493 16.5571C 19.5746 16.3865 19.7378 16.2159 20.0642 16.3439ZM 10.6802 9.39115C 11.9858 9.39115 13.3322 9.34849 14.6378 9.39115C 15.4538 9.4338 15.4946 9.09257 15.3314 8.41009C 14.7602 6.10674 13.0874 4.8271 10.6394 4.91241C 8.43616 4.99772 6.55935 6.57594 6.11054 8.66602C 5.98814 9.22053 6.11054 9.4338 6.68174 9.39115C 8.02815 9.34849 9.33377 9.39115 10.6802 9.39115Z"/>
<path id="path4_fill" d="M 9.56538 26.0253C 9.56538 27.6035 9.56538 29.0965 9.56538 30.5894C 9.56538 31.0159 9.40218 31.2292 9.03498 31.3571C 7.03577 31.997 5.03655 32.2102 3.03734 31.3998C 0.548531 30.3761 0.0181309 28.1154 0.0181309 25.6841C -0.0226693 17.9209 0.0181309 10.1151 0.0181309 2.352C 0.0181309 0.00599278 0.0181335 0.0059928 2.30295 0.0059928C 3.24135 0.0059928 4.22055 0.0486474 5.15896 0.0059928C 5.89336 -0.0366618 6.09736 0.133957 6.09736 0.987049C 6.05656 8.45161 6.13817 15.9162 6.05657 23.3807C 6.05657 26.2386 7.23977 26.6651 9.56538 26.0253Z"/>
<path id="path5_fill" d="M 9.50645 26.0671C 9.50645 27.6454 9.50645 29.1383 9.50645 30.6312C 9.50645 31.0577 9.38405 31.271 8.97605 31.399C 6.97684 32.0388 4.97763 32.252 3.01922 31.4416C 1.22401 30.7165 0.408002 29.2236 0.122401 27.3041C 0.0408002 26.7069 0 26.1098 0 25.5126C 0 17.3656 0.0408002 9.21855 0 1.11417C 0 0.218422 0.204001 -0.0375054 1.06081 0.00514919C 2.40721 0.0904585 3.79442 0.0904585 5.14083 0.00514919C 5.87523 -0.0375054 6.07923 0.175768 6.07923 0.986206C 6.03843 8.45077 6.12003 15.9153 6.03843 23.3372C 5.99763 26.2377 7.18084 26.7496 9.50645 26.0671Z"/>
<path id="path6_fill" d="M 7.42563 3.75443C 7.42563 5.97247 5.87523 7.67866 3.75362 7.72131C 1.59121 7.72131 4.98049e-06 6.10043 4.98049e-06 3.88239C 4.98049e-06 1.70701 1.50961 0.0434766 3.59042 0.000821983C 5.75283 -0.0418327 7.42563 1.57904 7.42563 3.75443Z"/>
</defs>
</svg>
