<svg width="10" height="14" viewBox="0 0 10 14" version="1.1" xmlns="http://www.w3.org/2000/svg" xmlns:xlink="http://www.w3.org/1999/xlink">
<title>placeholder</title>
<desc>Created using Figma</desc>
<g id="Canvas" transform="translate(5982 3104)">
<g id="placeholder">
<g id="Vector">
<use xlink:href="#path0_fill" transform="translate(-5979.54 -3101.54)" fill="#27272B"/>
</g>
<g id="Vector">
<use xlink:href="#path1_fill" transform="translate(-5982 -3104)" fill="#27272B"/>
</g>
</g>
</g>
<defs>
<path id="path0_fill" d="M 2.46094 0C 1.10398 0 0 1.10398 0 2.46094C 0 3.80923 1.08601 4.92188 2.46094 4.92188C 3.85282 4.92188 4.92188 3.79441 4.92188 2.46094C 4.92188 1.10398 3.8179 0 2.46094 0ZM 2.46094 4.10703C 1.55157 4.10703 0.814844 3.36785 0.814844 2.46094C 0.814844 1.5563 1.5563 0.814844 2.46094 0.814844C 3.36558 0.814844 4.1043 1.5563 4.1043 2.46094C 4.1043 3.35461 3.38472 4.10703 2.46094 4.10703Z"/>
<path id="path1_fill" d="M 4.92188 0C 2.20795 0 0 2.20795 0 4.92188C 0 5.83882 0.253996 6.73367 0.734699 7.51002L 4.64171 13.8061C 4.71655 13.9267 4.8484 14 4.99021 14C 4.9913 14 4.99237 14 4.99346 14C 5.1365 13.9989 5.26862 13.9233 5.34209 13.8006L 9.14952 7.44352C 9.6037 6.68358 9.84375 5.81161 9.84375 4.92188C 9.84375 2.20795 7.6358 0 4.92188 0ZM 8.44555 7.02237L 4.984 12.802L 1.43191 7.07782C 1.03179 6.43163 0.814844 5.68613 0.814844 4.92188C 0.814844 2.66027 2.66027 0.814844 4.92188 0.814844C 7.18348 0.814844 9.02617 2.66027 9.02617 4.92188C 9.02617 5.66347 8.82353 6.38991 8.44555 7.02237Z"/>
</defs>
</svg>
