<svg width="16" height="16" viewBox="0 0 16 16" version="1.1" xmlns="http://www.w3.org/2000/svg" xmlns:xlink="http://www.w3.org/1999/xlink">
<title>star</title>
<desc>Created using Figma</desc>
<g id="Canvas" transform="translate(6876 -1649)">
<g id="star">
<use xlink:href="#path0_fill" transform="translate(-6876 1649)"/>
</g>
</g>
<defs>
<path id="path0_fill" d="M 15.978 5.77313C 15.9255 5.61222 15.7876 5.49728 15.6201 5.47101L 10.6285 4.76169L 8.38234 0.246294C 8.30681 0.0952337 8.15246 -1.05228e-08 7.98498 -1.05228e-08C 7.8175 -1.05228e-08 7.66316 0.0952337 7.58763 0.249578L 5.37098 4.7781L 0.379422 5.52027C 0.211942 5.54654 0.0740174 5.66148 0.0214747 5.82239C -0.031068 5.9833 0.0149069 6.16064 0.136412 6.27557L 3.75858 9.78608L 2.92118 14.7579C 2.89162 14.9254 2.96058 15.0929 3.09851 15.1914C 3.17404 15.2472 3.26599 15.2768 3.35794 15.2768C 3.43018 15.2768 3.49915 15.2604 3.56483 15.2243L 8.02111 12.8631L 12.4905 15.198C 12.5562 15.2308 12.6252 15.2472 12.6941 15.2472C 12.9371 15.2472 13.1375 15.0469 13.1375 14.8039C 13.1375 14.7678 13.1342 14.735 13.1243 14.7021L 12.2606 9.75981L 15.8598 6.2296C 15.9879 6.11138 16.0306 5.93405 15.978 5.77313ZM 11.4791 9.29021C 11.374 9.39201 11.328 9.53979 11.3543 9.68428L 12.1063 13.9961L 8.22471 11.9699C 8.09664 11.9009 7.94229 11.9042 7.81094 11.9699L 3.94248 14.0191L 4.66822 9.7007C 4.69121 9.55621 4.64524 9.41172 4.54015 9.30992L 1.40072 6.26244L 5.73221 5.61879C 5.87671 5.5958 6.00149 5.50714 6.06389 5.37578L 7.98827 1.44493L 9.93892 5.36593C 10.0046 5.49728 10.1294 5.58595 10.2739 5.60894L 14.6087 6.22631L 11.4791 9.29021Z"/>
</defs>
</svg>
