<svg width="23" height="22" viewBox="0 0 23 22" version="1.1" xmlns="http://www.w3.org/2000/svg" xmlns:xlink="http://www.w3.org/1999/xlink">
<title>star</title>
<desc>Created using Figma</desc>
<g id="Canvas" transform="translate(6707 -1496)">
<g id="star">
<use xlink:href="#path0_fill" transform="translate(-6707 1496)" fill="#27272B"/>
</g>
</g>
<defs>
<path id="path0_fill" d="M 22.9684 8.31384C 22.8929 8.08212 22.6946 7.91659 22.4539 7.87876L 15.2785 6.85727L 12.0496 0.354686C 11.941 0.137145 11.7192 0 11.4784 0C 11.2377 0 11.0158 0.137145 10.9072 0.359415L 7.72079 6.88091L 0.545419 7.9497C 0.304667 7.98753 0.1064 8.15305 0.0308699 8.38478C -0.0446603 8.61651 0.0214286 8.87188 0.196092 9.0374L 5.40295 14.0929L 4.19919 21.2528C 4.15671 21.494 4.25584 21.7352 4.45411 21.877C 4.56268 21.9574 4.69486 22 4.82704 22C 4.93089 22 5.03002 21.9764 5.12444 21.9243L 11.5303 18.5241L 17.9551 21.8865C 18.0495 21.9338 18.1487 21.9574 18.2478 21.9574C 18.5971 21.9574 18.8851 21.669 18.8851 21.319C 18.8851 21.267 18.8804 21.2197 18.8662 21.1724L 17.6247 14.055L 22.7985 8.9712C 22.9826 8.80095 23.044 8.54557 22.9684 8.31384Z"/>
</defs>
</svg>
