<svg width="26" height="25" viewBox="0 0 26 25" version="1.1" xmlns="http://www.w3.org/2000/svg" xmlns:xlink="http://www.w3.org/1999/xlink">
<title>Group 2</title>
<desc>Created using Figma</desc>
<g id="Canvas" transform="translate(6017 -2718)">
<g id="Group 2">
<g id="Vector">
<use xlink:href="#path0_fill" transform="translate(-6016.58 2718)" fill="#FFFFFF"/>
<mask id="mask0_outline_ins">
<use xlink:href="#path0_fill" fill="white" transform="translate(-6016.58 2718)"/>
</mask>
<g mask="url(#mask0_outline_ins)">
<use xlink:href="#path1_stroke_2x" transform="translate(-6016.58 2718)" fill="#27272B"/>
</g>
</g>
<g id="svg 2">
<use xlink:href="#path2_fill" transform="matrix(0.1 0 0 -0.1 -6009.35 2739.08)" fill="#27272B"/>
</g>
</g>
</g>
<defs>
<path id="path0_fill" d="M 12.5 25C 19.4036 25 25 19.4036 25 12.5C 25 5.59644 19.4036 0 12.5 0C 5.59644 0 0 5.59644 0 12.5C 0 19.4036 5.59644 25 12.5 25Z"/>
<path id="path1_stroke_2x" d="M 24 12.5C 24 18.8513 18.8513 24 12.5 24L 12.5 26C 19.9558 26 26 19.9558 26 12.5L 24 12.5ZM 12.5 24C 6.14873 24 1 18.8513 1 12.5L -1 12.5C -1 19.9558 5.04416 26 12.5 26L 12.5 24ZM 1 12.5C 1 6.14873 6.14873 1 12.5 1L 12.5 -1C 5.04416 -1 -1 5.04416 -1 12.5L 1 12.5ZM 12.5 1C 18.8513 1 24 6.14873 24 12.5L 26 12.5C 26 5.04416 19.9558 -1 12.5 -1L 12.5 1Z"/>
<path id="path2_fill" d="M 55.653 119.199L 55.653 139.363L 55.653 159.526L 44.083 159.526C 35.7351 159.526 32.5131 159.44 32.5131 159.21C 32.5131 158.029 31.4586 152.21 30.7556 149.416C 28.7052 141.235 25.659 135.33 20.533 129.598C 16.2565 124.759 9.02165 120.006 2.28471 117.586L 0 116.751L 0 105.459L 0 94.139L 8.93377 94.139L 17.8382 94.139L 17.9554 61.6758L 17.9564 61.3289C 18.0433 29.9267 18.0455 29.1168 18.6584 26.5913C 19.3907 23.5091 20.9138 19.6204 22.2905 17.3448C 23.6379 15.1269 27.3871 11.267 30.1991 9.16422C 36.5845 4.4402 44.3466 1.53089 53.6026 0.378695C 58.4356 -0.226211 69.3319 -0.0821839 73.9306 0.637941C 82.0442 1.93417 89.8064 4.35379 96.4554 7.60876L 99.0037 8.87617L 99.0037 21.4352L 99.0037 33.9941L 98.3593 33.5909C 89.572 28.0315 79.2909 25.151 71.8216 26.1592C 68.336 26.6201 66.0806 27.369 63.2394 29.0397C 59.1386 31.4305 57.1761 34.0517 56.2974 38.2285C 55.9166 40.072 55.8287 44.5944 55.7409 67.2927L 55.6237 94.139L 74.6629 94.139L 93.7313 94.139L 93.7313 106.669L 93.7313 119.199L 74.6922 119.199L 55.653 119.199Z"/>
</defs>
</svg>
