<svg width="31" height="30" viewBox="0 0 31 30" version="1.1" xmlns="http://www.w3.org/2000/svg" xmlns:xlink="http://www.w3.org/1999/xlink">
<title>svg 2</title>
<desc>Created using Figma</desc>
<g id="Canvas" transform="translate(5834 -2775)">
<g id="svg 2">
<use xlink:href="#path0_fill" transform="matrix(0.1 0 0 -0.1 -5833.44 2805)" fill="#264461"/>
</g>
</g>
<defs>
<path id="path0_fill" d="M 137.695 299.626C 102.291 296.964 69.9981 282.239 44.6418 257.179C 11.2891 224.272 -4.70382 177.677 1.20809 130.875C 8.58943 72.3543 49.3918 23.6162 105.435 6.36778C 148.767 -6.9747 196.984 0.94092 233.72 27.3839C 278.863 59.9105 302.339 113.868 295.368 169.105C 287.987 227.625 247.184 276.363 191.141 293.611C 174.465 298.762 155.02 300.939 137.695 299.626ZM 155.464 214.282L 155.464 190.086L 177.677 190.086L 199.889 190.086L 199.889 175.05L 199.889 160.014L 177.643 160.014L 155.43 160.014L 155.567 127.798C 155.669 100.56 155.772 95.1333 156.216 92.9211C 157.241 87.909 159.531 84.7635 164.315 81.8945C 167.63 79.8897 170.261 78.991 174.328 78.4379C 183.042 77.2281 195.037 80.6847 205.288 87.3559L 206.04 87.8399L 206.04 72.7691L 206.04 57.6983L 203.067 56.1774C 195.31 52.2714 186.254 49.3679 176.788 47.8124C 171.423 46.9483 158.711 46.7755 153.072 47.5013C 142.274 48.884 133.218 52.3751 125.768 58.044C 122.488 60.5673 118.113 65.1991 116.542 67.8607C 114.935 70.5914 113.158 75.2578 112.304 78.9564C 111.586 81.9982 111.586 82.9661 111.484 121.058L 111.347 160.014L 100.959 160.014L 90.536 160.014L 90.536 173.598L 90.536 187.148L 93.2015 188.15C 101.061 191.054 109.502 196.757 114.491 202.564C 120.471 209.443 124.025 216.529 126.417 226.346C 127.238 229.699 128.468 236.681 128.468 238.098C 128.468 238.375 132.227 238.479 141.966 238.479L 155.464 238.479L 155.464 214.282Z"/>
</defs>
</svg>
