<svg width="26" height="25" viewBox="0 0 26 25" version="1.1" xmlns="http://www.w3.org/2000/svg" xmlns:xlink="http://www.w3.org/1999/xlink">
<title>Group 2</title>
<desc>Created using Figma</desc>
<g id="Canvas" transform="translate(6055 -2718)">
<g id="Group 2">
<g id="Vector">
<use xlink:href="#path0_fill" transform="translate(-6054.58 2718)" fill="#FFFFFF"/>
<mask id="mask0_outline_ins">
<use xlink:href="#path0_fill" fill="white" transform="translate(-6054.58 2718)"/>
</mask>
<g mask="url(#mask0_outline_ins)">
<use xlink:href="#path1_stroke_2x" transform="translate(-6054.58 2718)" fill="#27272B"/>
</g>
</g>
<g id="Vector">
<use xlink:href="#path2_fill" transform="translate(-6048.07 2726.46)" fill="#27272B"/>
</g>
</g>
</g>
<defs>
<path id="path0_fill" d="M 12.5 25C 19.4036 25 25 19.4036 25 12.5C 25 5.59644 19.4036 0 12.5 0C 5.59644 0 0 5.59644 0 12.5C 0 19.4036 5.59644 25 12.5 25Z"/>
<path id="path1_stroke_2x" d="M 24 12.5C 24 18.8513 18.8513 24 12.5 24L 12.5 26C 19.9558 26 26 19.9558 26 12.5L 24 12.5ZM 12.5 24C 6.14873 24 1 18.8513 1 12.5L -1 12.5C -1 19.9558 5.04416 26 12.5 26L 12.5 24ZM 1 12.5C 1 6.14873 6.14873 1 12.5 1L 12.5 -1C 5.04416 -1 -1 5.04416 -1 12.5L 1 12.5ZM 12.5 1C 18.8513 1 24 6.14873 24 12.5L 26 12.5C 26 5.04416 19.9558 -1 12.5 -1L 12.5 1Z"/>
<path id="path2_fill" d="M 12.2739 1.3796C 11.9805 1.8102 11.6277 2.19064 11.2196 2.51672C 11.1133 2.60452 11.0496 2.72993 11.0496 2.86371L 11.0496 2.90134C 11.0496 3.73328 10.8838 4.60702 10.5735 5.42642C 10.2461 6.28345 9.77426 7.06104 9.17487 7.73411C 8.52872 8.45736 7.75928 9.02174 6.88783 9.4189C 5.93985 9.85368 4.8856 10.0711 3.76333 10.0711C 2.47953 10.0711 1.21273 9.73662 0.107462 9.10117C 0.026693 9.05518 -0.0158169 8.96321 0.0054382 8.87124C 0.0309443 8.77926 0.107463 8.72074 0.205236 8.72074L 0.511309 8.72074C 1.49329 8.72074 2.44127 8.43645 3.25321 7.90134C 2.27548 7.74666 1.45928 7.05686 1.15321 6.12458C 1.1192 6.02425 1.20847 5.92809 1.3105 5.949C 1.45928 5.97826 1.60807 5.9908 1.75686 5.9908C 1.77386 5.9908 1.79511 5.9908 1.81212 5.9908C 0.876895 5.56856 0.251997 4.63629 0.26475 3.58278C 0.26475 3.47826 0.379527 3.41555 0.468798 3.46572C 0.660094 3.57023 0.864143 3.64548 1.07244 3.69565C 0.570823 3.2107 0.281754 2.54181 0.281754 1.83528C 0.281754 1.37542 0.405033 0.919733 0.638839 0.522575C 0.6856 0.438963 0.804628 0.430602 0.864142 0.505853C 2.06293 1.95234 3.76333 2.84699 5.64228 3.0184C 5.64653 3.0184 5.64653 3.0184 5.65078 3.0184C 5.68054 3.0184 5.70605 3.00585 5.72305 2.98495C 5.7358 2.97241 5.75281 2.94732 5.74856 2.9097C 5.7103 2.59615 5.73155 2.27007 5.81232 1.94816C 6.02062 1.08696 6.68378 0.388796 7.54248 0.129599C 7.8188 0.0459871 8.10362 0 8.38418 0C 9.03034 0 9.65524 0.229933 10.1399 0.652174C 10.2036 0.706522 10.2844 0.735786 10.3652 0.735786C 10.3907 0.735786 10.4204 0.731605 10.4459 0.727425C 10.9008 0.614548 11.3386 0.434783 11.7425 0.20067C 11.853 0.137961 11.9848 0.238294 11.9465 0.359532C 11.8105 0.777592 11.5682 1.15385 11.2494 1.45485C 11.5384 1.38796 11.8233 1.29181 12.0996 1.17475C 12.2313 1.12458 12.3504 1.26672 12.2739 1.3796Z"/>
</defs>
</svg>
