<svg width="31" height="30" viewBox="0 0 31 30" version="1.1" xmlns="http://www.w3.org/2000/svg" xmlns:xlink="http://www.w3.org/1999/xlink">
<title>Vector</title>
<desc>Created using Figma</desc>
<g id="Canvas" transform="translate(6156 -2775)">
<g id="Vector">
<use xlink:href="#path0_fill" transform="translate(-6155.22 2775)" fill="#76A9EA"/>
</g>
</g>
<defs>
<path id="path0_fill" d="M 14.8289 0C 6.64078 0 0 6.71739 0 15C 0 23.2826 6.64078 30 14.8289 30C 23.0171 30 29.6579 23.2826 29.6579 15C 29.6579 6.71739 23.0171 0 14.8289 0ZM 21.9756 10.6054C 21.6334 11.1221 21.2217 11.5786 20.7456 11.9699C 20.6216 12.0753 20.5473 12.2258 20.5473 12.3863L 20.5473 12.4314C 20.5473 13.4298 20.3538 14.4783 19.9918 15.4615C 19.6099 16.49 19.0594 17.4231 18.3601 18.2308C 17.6063 19.0987 16.7086 19.7759 15.6919 20.2525C 14.5859 20.7742 13.356 21.0351 12.0467 21.0351C 10.5489 21.0351 9.07095 20.6338 7.78147 19.8712C 7.68724 19.8161 7.63765 19.7057 7.66244 19.5953C 7.6922 19.485 7.78147 19.4147 7.89554 19.4147L 8.25263 19.4147C 9.39827 19.4147 10.5042 19.0736 11.4515 18.4314C 10.3108 18.2458 9.3586 17.4181 9.00151 16.2993C 8.96184 16.1789 9.06599 16.0635 9.18501 16.0886C 9.3586 16.1237 9.53218 16.1388 9.70576 16.1388C 9.7256 16.1388 9.7504 16.1388 9.77024 16.1388C 8.67914 15.6321 7.9501 14.5134 7.96497 13.2492C 7.96497 13.1237 8.09888 13.0485 8.20303 13.1087C 8.42621 13.2341 8.66427 13.3244 8.90728 13.3846C 8.32206 12.8027 7.98481 12 7.98481 11.1522C 7.98481 10.6003 8.12864 10.0535 8.40141 9.57692C 8.45597 9.47659 8.59483 9.46656 8.66427 9.55686C 10.0628 11.2926 12.0467 12.3662 14.2388 12.5719C 14.2437 12.5719 14.2437 12.5719 14.2487 12.5719C 14.2834 12.5719 14.3131 12.5569 14.333 12.5318C 14.3479 12.5167 14.3677 12.4866 14.3627 12.4415C 14.3181 12.0652 14.3429 11.6739 14.4371 11.2876C 14.6802 10.2542 15.4538 9.41639 16.4557 9.10535C 16.778 9.00502 17.1103 8.94983 17.4376 8.94983C 18.1915 8.94983 18.9205 9.22575 19.4859 9.73244C 19.5603 9.79766 19.6545 9.83278 19.7488 9.83278C 19.7785 9.83278 19.8132 9.82776 19.843 9.82274C 20.3737 9.68729 20.8845 9.47157 21.3557 9.19064C 21.4846 9.11539 21.6383 9.23579 21.5937 9.38127C 21.435 9.88294 21.1523 10.3344 20.7804 10.6957C 21.1176 10.6154 21.4499 10.5 21.7723 10.3595C 21.926 10.2993 22.0649 10.4699 21.9756 10.6054Z"/>
</defs>
</svg>
