<svg width="16" height="16" viewBox="0 0 16 16" version="1.1" xmlns="http://www.w3.org/2000/svg" xmlns:xlink="http://www.w3.org/1999/xlink">
<title>Vector</title>
<desc>Created using Figma</desc>
<g id="Canvas" transform="translate(6876 -1620)">
<rect x="-6876" y="1620" width="16" height="16" fill="#E5E5E5"/>
<g id="UI">
<path d="M -7171 438L -4643 438L -4643 3620L -7171 3620L -7171 438Z" fill="#FFFFFF"/>
<g id="ICONS">
<g id="icons active">
<g id="Vector">
<use xlink:href="#path0_fill" transform="translate(-6876 1620)"/>
</g>
</g>
</g>
</g>
</g>
<defs>
<path id="path0_fill" d="M 2.25 13.5581C 3.70349 15.0581 5.74419 16 8 16C 12.407 16 16 12.407 16 8C 16 3.59302 12.407 0 8 0C 3.59302 0 0 3.59302 0 8C 0 10.1047 0.819767 12.0174 2.15116 13.4477C 2.17442 13.4942 2.21512 13.5233 2.25 13.5581ZM 8 15.0814C 6.26163 15.0814 4.66279 14.4477 3.43023 13.4012C 5.50581 12.7151 6.27326 11.8779 6.55814 11.3198C 6.95349 11.4942 7.39535 11.5872 7.88372 11.5872L 7.98837 11.5872C 8.51744 11.5756 9 11.4709 9.41279 11.2733C 9.68023 11.8314 10.4302 12.6977 12.564 13.4012C 11.3372 14.4477 9.73837 15.0814 8 15.0814ZM 5.41279 6.52326L 5.41279 6.49419C 5.52326 4.06977 7.30814 3.87791 7.86046 3.87791L 8.01163 3.87791C 8.55814 3.87791 10.3488 4.06977 10.4593 6.49419L 10.4593 6.52326C 10.4651 6.54651 10.6919 8.7907 9.64535 9.96512C 9.23256 10.4302 8.68023 10.6628 7.9593 10.6686L 7.93023 10.6686C 7.20349 10.657 6.65698 10.4302 6.24419 9.96512C 5.18605 8.79651 5.40698 6.54651 5.41279 6.52326ZM 8 0.918605C 11.9012 0.918605 15.0814 4.09302 15.0814 8C 15.0814 9.78488 14.4128 11.4244 13.3198 12.6686C 10.314 11.7965 10.1977 10.7326 10.1977 10.7209L 10.1977 10.7442L 10.1628 10.7442C 10.2209 10.686 10.2733 10.6337 10.3314 10.5698C 11.6105 9.13372 11.3953 6.67442 11.3721 6.43023C 11.2442 3.86046 9.48256 2.95349 8.01163 2.95349L 7.86046 2.95349C 6.38372 2.95349 4.61628 3.86628 4.5 6.43023C 4.47674 6.6686 4.26744 9.12791 5.5407 10.5698C 5.61628 10.6512 5.69186 10.7326 5.77326 10.8081C 5.67442 11.0756 5.18023 11.936 2.68605 12.6628C 1.58721 11.4186 0.924419 9.78488 0.924419 8C 0.918605 4.09884 4.09884 0.918605 8 0.918605Z"/>
</defs>
</svg>
