<svg xmlns="http://www.w3.org/2000/svg" width="75" height="63" viewBox="0 0 75 63"><g><g><g><path fill="#21a4cf" d="M47.484 47.469a4.398 4.398 0 0 0-4.39-4.398c-.906 0-1.735.284-2.438.751v.007a4.34 4.34 0 0 0-.812.688l.015.013c-.921.82-2.375 2.194-3.421 3.447a4.404 4.404 0 0 0-1.032-1.553c-4.328-3.82-9.547-5.374-15.531-5.374-1.953 0-3.844.212-5.64.604-.047-.648-.094-1.046-.094-1.046H2.5S2 44.87 2 50.123c0 5.255.5 9.518.5 9.518h11.64s.11-1.112.235-2.693c1.719-.289 3.5.165 5.547 1.44 2.594 1.696 5.797 2.702 9.266 2.702 3.515 0 6.53-1.034 9.03-2.781l.016.004c.032-.023.063-.043.094-.075a18.553 18.553 0 0 0 2.016-1.66c.484-.505 1.14-1.148 2.14-2.125 3.375-3.298 3.782-3.953 3.782-3.953l-.016.003a4.317 4.317 0 0 0 1.234-3.034z"/><path fill="none" stroke="#fff" stroke-linecap="round" stroke-linejoin="round" stroke-miterlimit="50" stroke-width="3" d="M47.484 47.469a4.398 4.398 0 0 0-4.39-4.398c-.906 0-1.735.284-2.438.751v.007a4.34 4.34 0 0 0-.812.688l.015.013c-.921.82-2.375 2.194-3.421 3.447a4.404 4.404 0 0 0-1.032-1.553c-4.328-3.82-9.547-5.374-15.531-5.374-1.953 0-3.844.212-5.64.604-.047-.648-.094-1.046-.094-1.046v0H2.5v0S2 44.87 2 50.123c0 5.255.5 9.518.5 9.518v0h11.64v0s.11-1.112.235-2.693c1.719-.289 3.5.165 5.547 1.44 2.594 1.696 5.797 2.702 9.266 2.702 3.515 0 6.53-1.034 9.03-2.781l.016.004c.032-.023.063-.043.094-.075a18.553 18.553 0 0 0 2.016-1.66c.484-.505 1.14-1.148 2.14-2.125 3.375-3.298 3.782-3.953 3.782-3.953v0l-.016.003a4.317 4.317 0 0 0 1.234-3.034z"/></g><g><path fill="none" stroke="#fff" stroke-linecap="round" stroke-linejoin="round" stroke-miterlimit="50" stroke-width="3" d="M14.146 40.608v18.679"/></g><g><path fill="none" stroke="#fff" stroke-linecap="round" stroke-linejoin="round" stroke-miterlimit="50" stroke-width="3" d="M36.836 47.7v0l-5.594 3.557v0l-6.531-1.78v0"/></g><g><path fill="#21a4cf" d="M26.455 35.437c-6.363-2.428-9.552-9.554-7.124-15.917 2.428-6.362 9.554-9.552 15.917-7.123 6.362 2.428 9.552 9.554 7.123 15.916-2.428 6.363-9.554 9.552-15.916 7.124z"/><path fill="none" stroke="#fff" stroke-linecap="round" stroke-linejoin="round" stroke-miterlimit="50" stroke-width="3" d="M26.455 35.437c-6.363-2.428-9.552-9.554-7.124-15.917 2.428-6.362 9.554-9.552 15.917-7.123 6.362 2.428 9.552 9.554 7.123 15.916-2.428 6.363-9.554 9.552-15.916 7.124z"/></g><g><g><path fill="none" stroke="#fff" stroke-linecap="round" stroke-linejoin="round" stroke-miterlimit="50" stroke-width="3" d="M26.172 20.11l8.642 9.796"/></g><g><path fill="none" stroke="#fff" stroke-linecap="round" stroke-linejoin="round" stroke-miterlimit="50" stroke-width="3" d="M30.54 29.532l4.991-3.993"/></g><g><path fill="none" stroke="#fff" stroke-linecap="round" stroke-linejoin="round" stroke-miterlimit="50" stroke-width="3" d="M28.234 26.82c.836-.483 2.508-1.754 3.078-2.29 4.829-4.568-.93-9.575-5.14-4.42"/></g></g></g><g><path fill="none" stroke="#64d282" stroke-linecap="round" stroke-linejoin="round" stroke-miterlimit="50" stroke-width="7" d="M52.501 11.084v0l5.288 5.534v0L70.702 4.074v0"/></g></g></svg>