<svg xmlns="http://www.w3.org/2000/svg" width="75" height="57" viewBox="0 0 75 57"><g><g><g><path fill="#21a4cf" d="M5.082 18.433h31.406a2.832 2.832 0 0 1 2.828 2.817v21.462L28.214 55.521H4.95c-1.547 0-2.688-1.309-2.688-2.859V21.247a2.825 2.825 0 0 1 2.82-2.817z"/><path fill="none" stroke="#fff" stroke-linecap="round" stroke-linejoin="round" stroke-miterlimit="50" stroke-width="3" d="M5.082 18.433v0h31.406a2.832 2.832 0 0 1 2.828 2.817v21.462L28.214 55.521v0H4.95c-1.547 0-2.688-1.309-2.688-2.859V21.247a2.825 2.825 0 0 1 2.82-2.817z"/></g><g><g><path fill="none" stroke="#fff" stroke-linecap="round" stroke-linejoin="round" stroke-miterlimit="50" stroke-width="3" d="M39.304 28.905H2.254"/></g><g><path fill="none" stroke="#fff" stroke-linecap="round" stroke-linejoin="round" stroke-miterlimit="50" stroke-width="3" d="M8.597 14v7.754"/></g><g><path fill="none" stroke="#fff" stroke-linecap="round" stroke-linejoin="round" stroke-miterlimit="50" stroke-width="3" d="M20.78 14v7.751"/></g><g><path fill="none" stroke="#fff" stroke-linecap="round" stroke-linejoin="round" stroke-miterlimit="50" stroke-width="3" d="M32.46 14v7.751"/></g><g><path fill="none" stroke="#fff" stroke-linecap="round" stroke-linejoin="round" stroke-miterlimit="50" stroke-width="3" d="M28.21 42.715v12.808"/></g><g><path fill="none" stroke="#fff" stroke-linecap="round" stroke-linejoin="round" stroke-miterlimit="50" stroke-width="3" d="M39.304 42.715H28.272"/></g><g><g><path fill="none" stroke="#fff" stroke-linecap="round" stroke-linejoin="round" stroke-miterlimit="50" stroke-width="3" d="M21.405 34.602v13.85"/></g><g><path fill="none" stroke="#fff" stroke-linecap="round" stroke-linejoin="round" stroke-miterlimit="50" stroke-width="3" d="M21.306 34.837l-3.65 3.65"/></g></g></g></g><g><path fill="none" stroke="#64d282" stroke-linecap="round" stroke-linejoin="round" stroke-miterlimit="50" stroke-width="7" d="M52.501 11.084v0l5.288 5.534v0L70.702 4.074v0"/></g></g></svg>