<?xml version="1.0" encoding="UTF-8" standalone="no"?>
<svg
   xmlns:dc="http://purl.org/dc/elements/1.1/"
   xmlns:cc="http://creativecommons.org/ns#"
   xmlns:rdf="http://www.w3.org/1999/02/22-rdf-syntax-ns#"
   xmlns:svg="http://www.w3.org/2000/svg"
   xmlns="http://www.w3.org/2000/svg"
   viewBox="0 0 1365.3333 1024"
   height="1024"
   width="1365.3333"
   xml:space="preserve"
   id="svg2"
   version="1.1"><metadata
     id="metadata8"><rdf:RDF><cc:Work
         rdf:about=""><dc:format>image/svg+xml</dc:format><dc:type
           rdf:resource="http://purl.org/dc/dcmitype/StillImage" /></cc:Work></rdf:RDF></metadata><defs
     id="defs6"><clipPath
       id="clipPath18"
       clipPathUnits="userSpaceOnUse"><path
         id="path16"
         d="M 0,768 H 1024 V 0 H 0 Z" /></clipPath><clipPath
       id="clipPath58"
       clipPathUnits="userSpaceOnUse"><path
         id="path56"
         d="M 0,768 H 1024 V 0 H 0 Z" /></clipPath></defs><g
     transform="matrix(1.3333333,0,0,-1.3333333,0,1024)"
     id="g10"><g
       id="g12"><g
         clip-path="url(#clipPath18)"
         id="g14"><g
           transform="translate(287.3389,162.7891)"
           id="g20"><path
             id="path22"
             style="fill:#231f20;fill-opacity:1;fill-rule:nonzero;stroke:none"
             d="m 0,0 h 20.303 l -7.726,20.457 c -0.646,1.605 -1.423,3.83 -2.329,6.677 C 9.55,24.649 8.786,22.398 7.958,20.38 Z M 21.622,-3.571 H -1.436 l -7.918,-20.031 h -4.387 L 9.084,33.384 h 2.523 l 22.36,-56.986 h -4.465 z" /></g><g
           transform="translate(402.4043,139.1875)"
           id="g24"><path
             id="path26"
             style="fill:#231f20;fill-opacity:1;fill-rule:nonzero;stroke:none"
             d="m 0,0 h -3.998 l -33.616,50.387 h -0.311 c 0.311,-6.005 0.466,-10.533 0.466,-13.587 V 0 h -3.805 v 56.752 h 3.96 L -3.727,6.443 h 0.234 c -0.234,4.659 -0.35,9.084 -0.35,13.277 V 56.752 H 0 Z" /></g><g
           transform="translate(474.498,193.1836)"
           id="g28"><path
             id="path30"
             style="fill:#231f20;fill-opacity:1;fill-rule:nonzero;stroke:none"
             d="m 0,0 c -7.117,0 -12.72,-2.277 -16.809,-6.832 -4.088,-4.555 -6.132,-10.791 -6.132,-18.71 0,-8.101 1.927,-14.389 5.784,-18.866 3.855,-4.478 9.367,-6.715 16.536,-6.715 4.762,0 9.135,0.607 13.121,1.824 v -3.494 c -3.753,-1.319 -8.438,-1.979 -14.053,-1.979 -7.97,0 -14.246,2.575 -18.827,7.724 -4.58,5.15 -6.87,12.345 -6.87,21.583 0,5.771 1.093,10.857 3.279,15.256 2.187,4.399 5.331,7.796 9.434,10.189 4.1,2.394 8.87,3.591 14.305,3.591 5.537,0 10.493,-1.035 14.867,-3.105 L 13.043,-3.105 C 8.902,-1.035 4.555,0 0,0" /></g><g
           transform="translate(572.5605,139.1875)"
           id="g32"><path
             id="path34"
             style="fill:#231f20;fill-opacity:1;fill-rule:nonzero;stroke:none"
             d="m 0,0 h -3.998 v 27.91 h -33.15 V 0 h -3.961 v 56.752 h 3.961 V 31.56 h 33.15 V 56.752 H 0 Z" /></g><g
           transform="translate(621.7129,167.6416)"
           id="g36"><path
             id="path38"
             style="fill:#231f20;fill-opacity:1;fill-rule:nonzero;stroke:none"
             d="m 0,0 c 0,-8.127 1.811,-14.408 5.434,-18.847 3.623,-4.438 8.825,-6.657 15.605,-6.657 6.832,0 12.053,2.199 15.663,6.599 3.611,4.399 5.415,10.701 5.415,18.905 0,8.177 -1.804,14.446 -5.415,18.808 -3.61,4.36 -8.806,6.541 -15.585,6.541 -6.755,0 -11.963,-2.201 -15.625,-6.6 C 1.83,14.35 0,8.1 0,0 m 46.426,0 c 0,-9.006 -2.251,-16.129 -6.754,-21.37 -4.503,-5.24 -10.714,-7.86 -18.633,-7.86 -7.893,0 -14.092,2.62 -18.594,7.86 -4.504,5.241 -6.754,12.39 -6.754,21.447 0,9.031 2.27,16.142 6.813,21.331 4.541,5.189 10.746,7.783 18.613,7.783 7.918,0 14.116,-2.607 18.594,-7.822 C 44.188,16.154 46.426,9.031 46.426,0" /></g><g
           transform="translate(716.9414,167.3311)"
           id="g40"><path
             id="path42"
             style="fill:#231f20;fill-opacity:1;fill-rule:nonzero;stroke:none"
             d="m 0,0 h 10.83 c 4.787,0 8.502,1.067 11.141,3.202 2.64,2.135 3.961,5.285 3.961,9.452 0,4.323 -1.295,7.466 -3.883,9.433 -2.588,1.967 -6.807,2.951 -12.654,2.951 H 0 Z M 0,-3.416 V -28.144 H -3.959 V 28.608 H 9.549 c 7.039,0 12.242,-1.299 15.605,-3.9 3.364,-2.602 5.047,-6.516 5.047,-11.743 0,-3.804 -1.004,-7.013 -3.008,-9.627 -2.006,-2.614 -5.054,-4.49 -9.142,-5.628 l 15.41,-25.854 H 28.727 L 14.092,-3.416 Z" /></g><path
           id="path44"
           style="fill:#231f20;fill-opacity:1;fill-rule:nonzero;stroke:none"
           d="M 437.004,109.048 H 270 v -0.25 h 167.004 z" /><path
           id="path46"
           style="fill:#231f20;fill-opacity:1;fill-rule:nonzero;stroke:none"
           d="M 586.996,108.798 H 754 v 0.25 H 586.996 Z" /></g></g><text
       id="text50"
       style="font-variant:normal;font-weight:300;font-stretch:normal;font-size:24.27029991px;font-family:'Open Sans Light';-inkscape-font-specification:OpenSans-Light;writing-mode:lr-tb;fill:#231f20;fill-opacity:1;fill-rule:nonzero;stroke:none"
       transform="matrix(1,0,0,-1,452.3789,98.6611)"><tspan
         id="tspan48"
         y="0"
         x="0 24.779976 49.050278 73.975876 96.134659">CABLE</tspan></text>
<g
       id="g52"><g
         clip-path="url(#clipPath58)"
         id="g54"><g
           transform="translate(512.5029,575.1953)"
           id="g60"><path
             id="path62"
             style="fill:#000000;fill-opacity:1;fill-rule:evenodd;stroke:none"
             d="M 0,0 C -0.004,0 -0.007,0 -0.011,0 -12.925,-0.057 -23.531,10.437 -23.55,23.29 -23.57,36.144 -13.121,46.384 0,46.382 V 62.591 C -18.616,62.58 -34.708,50.432 -39.174,32.978 c -4.48,-17.511 3.309,-37.342 20.325,-43.989 10.973,-4.288 11.062,-10.678 10.066,-19.372 -0.017,-0.153 0,-0.31 -0.013,-0.465 -0.245,-3.098 -1.855,-4.96 -5.016,-4.982 -10.255,-0.072 -20.512,-0.021 -30.768,-0.057 -1.937,-0.007 -2.603,0.691 -2.683,2.748 -0.206,5.311 -1.461,6.13 -6.152,3.725 -8.221,-4.216 -15.481,-9.786 -21.613,-16.731 -1.294,-1.463 -3.402,-3.004 -2.415,-5.154 1.036,-2.259 3.609,-1.243 5.499,-1.242 18.491,0.021 36.979,0.174 55.467,0.209 5.435,0.011 7.318,-1.869 7.184,-6.788 -0.445,-16.298 -0.957,-32.595 -1.353,-48.894 -1.279,-52.634 -2.547,-105.269 -3.758,-157.906 -0.42,-18.25 -15.416,-29.862 -32.674,-24.354 -32.95,10.517 -60.191,29.241 -79.935,58.043 -6.443,9.397 -11.409,19.578 -14.401,30.635 -0.833,3.076 -0.738,5.57 3.615,4.359 2.764,-0.769 2.462,0.908 2.07,2.542 -1.198,5.001 -3.025,9.794 -5.126,14.465 -1.053,2.341 -1.915,5.413 -5.011,5.555 -3.14,0.143 -4.869,-2.546 -6.313,-4.926 -3.748,-6.182 -5.925,-12.985 -7.159,-20.066 -0.406,-2.331 -1.688,-5.487 0.965,-6.831 2.607,-1.322 3.54,2.295 5.677,3.561 1.438,-1.357 1.371,-3.004 1.688,-4.484 2.497,-11.641 6.651,-22.678 12.738,-32.88 23.667,-39.658 59.704,-61.275 104.018,-70.276 11.372,-2.311 22.646,-4.069 31.414,-12.591 0.984,-0.956 1.927,-1.283 2.838,-1.217 z" /></g><g
           transform="translate(511.4971,575.1953)"
           id="g64"><path
             id="path66"
             style="fill:#000000;fill-opacity:1;fill-rule:evenodd;stroke:none"
             d="M 0,0 C 0.004,0 0.007,0 0.011,0 12.925,-0.057 23.531,10.437 23.55,23.29 23.569,36.144 13.121,46.384 0,46.382 V 62.591 C 18.616,62.58 34.708,50.432 39.174,32.978 43.653,15.467 35.864,-4.364 18.849,-11.011 7.876,-15.299 7.787,-21.689 8.783,-30.383 c 0.017,-0.153 0,-0.31 0.013,-0.465 0.244,-3.098 1.855,-4.96 5.016,-4.982 10.255,-0.072 20.512,-0.021 30.768,-0.057 1.937,-0.007 2.603,0.691 2.683,2.748 0.207,5.311 1.461,6.13 6.152,3.725 8.221,-4.216 15.481,-9.786 21.613,-16.731 1.294,-1.463 3.403,-3.004 2.415,-5.154 -1.036,-2.259 -3.609,-1.243 -5.499,-1.242 -18.491,0.021 -36.979,0.174 -55.467,0.209 -5.435,0.011 -7.318,-1.869 -7.184,-6.788 0.445,-16.298 0.957,-32.595 1.353,-48.894 1.279,-52.634 2.546,-105.269 3.757,-157.906 0.421,-18.25 15.417,-29.862 32.674,-24.354 32.951,10.517 60.192,29.241 79.936,58.043 6.443,9.397 11.41,19.578 14.401,30.635 0.833,3.076 0.737,5.57 -3.615,4.359 -2.765,-0.769 -2.462,0.908 -2.07,2.542 1.198,5.001 3.025,9.794 5.126,14.465 1.053,2.341 1.915,5.413 5.011,5.555 3.141,0.143 4.869,-2.546 6.313,-4.926 3.748,-6.182 5.925,-12.985 7.16,-20.066 0.405,-2.331 1.687,-5.487 -0.966,-6.831 -2.607,-1.322 -3.54,2.295 -5.677,3.561 -1.437,-1.357 -1.371,-3.004 -1.687,-4.484 -2.498,-11.641 -6.653,-22.678 -12.739,-32.88 -23.667,-39.658 -59.705,-61.275 -104.017,-70.276 -11.373,-2.311 -22.647,-4.069 -31.415,-12.591 -0.984,-0.956 -1.927,-1.283 -2.838,-1.217 z" /></g></g></g></g></svg>