<svg id="Layer_1" xmlns="http://www.w3.org/2000/svg" viewBox="0 0 360.6 10.1"><style>.st0{opacity:0.4;}</style><g class="st0"><circle cx="352.6" cy="5" r="1.6"/><path d="M331.6 3.6c.1 0 .1 0 0 0 .8 0 1.5.7 1.4 1.5 0 .8-.7 1.4-1.5 1.4s-1.4-.7-1.4-1.5c.1-.8.8-1.4 1.5-1.4zm-20.9.1h.1c.7.1 1.2.7 1.2 1.4-.1.7-.7 1.2-1.4 1.2-.7-.1-1.2-.7-1.2-1.4 0-.3.2-.7.5-.9.2-.1.5-.3.8-.3zm-21 .2h.2c.3 0 .6.2.8.4.2.2.3.6.2.9-.1.6-.7 1.1-1.3 1-.6-.1-1.1-.7-1-1.3 0-.3.2-.6.4-.8.2-.2.5-.2.7-.2zm-20.9.1h.2c.6.1 1 .7.9 1.2-.1.6-.7 1-1.2.9-.6-.1-1-.7-.9-1.2 0-.6.5-.9 1-.9zm-20.5 1.9c-.1 0-.3.1-.7.1-.5-.1-.8-.6-.7-1.2.1-.4.5-.7.9-.7h.2c.5.1.8.6.7 1.1 0 .4-.2.6-.4.7zm-21.4-1.7h.2c.3.1.4.3.5.4.1.1.2.4.1.7-.1.3-.3.4-.4.5-.1.1-.4.2-.7.1-.5-.1-.7-.6-.6-1.1.2-.4.5-.6.9-.6zm-21 .1h.3c.4.1.6.6.5 1-.1.3-.3.4-.4.4-.1.1-.3.1-.6 0s-.4-.3-.4-.4c0-.1-.1-.3 0-.6 0-.2.3-.4.6-.4zm-20.9 0c.1 0 .2 0 .3.1.2.1.3.3.4.4 0 .1.1.3 0 .5s-.3.3-.4.4c-.1 0-.3.1-.5 0-.4-.2-.5-.6-.4-.9.1-.3.3-.5.6-.5zm-20.8 1.3c-.1 0-.3.1-.5 0s-.3-.3-.3-.4c0-.1-.1-.3 0-.5s.3-.3.4-.3h.2c.1 0 .2 0 .3.1.2.1.3.3.3.4 0 .1.1.3 0 .5-.1.1-.3.2-.4.2zM143 4.5h.1c.1 0 .2 0 .3.1.2.1.2.3.3.4 0 .1 0 .3-.1.4-.1.2-.3.2-.4.3-.1 0-.3 0-.4-.1-.2-.1-.2-.3-.3-.4 0-.1 0-.3.1-.4.1-.2.3-.3.4-.3zm-20.8 0c.1 0 .2 0 .3.1.2.2.3.5.1.8-.2.2-.5.3-.8.1-.2-.2-.3-.5-.1-.8.1-.1.3-.2.5-.2zm-21 1.1c-.1 0-.2 0-.4-.1-.2-.2-.2-.5-.1-.7.1-.1.2-.2.4-.2.1 0 .2 0 .3.1.1.1.2.3.2.4 0 .1 0 .2-.1.4 0 0-.2.1-.3.1zM80.3 4.5c.1 0 .2 0 .4.2s.2.5 0 .7c-.2.2-.5.2-.7 0-.1-.1-.2-.3-.2-.4 0-.1 0-.2.2-.4 0-.1.2-.1.3-.1z"/><circle cx="341.9" cy="5" r="1.6"/><path d="M321 3.6c.4 0 .8.2 1 .5.3.3.4.6.4 1s-.2.7-.5 1c-.3.3-.6.4-1 .4-.8 0-1.4-.7-1.4-1.5.1-.8.7-1.4 1.5-1.4zm-21 .1h.1c.3 0 .7.2.9.5.2.3.3.6.3.9-.1.7-.7 1.2-1.4 1.2-.7-.1-1.2-.7-1.2-1.4 0-.3.2-.7.5-.9.2-.1.5-.3.8-.3zm-20.9.2h.2c.3 0 .6.2.8.4.2.2.3.6.2.9 0 .3-.2.6-.4.8-.2.2-.6.3-.9.2-.6-.1-1.1-.7-1-1.3 0-.3.2-.6.4-.8.1-.2.4-.2.7-.2zm-21 .1h.2c.6.1 1 .7.9 1.2-.1.6-.7 1-1.2.9-.6-.1-1-.7-.9-1.2.1-.6.5-.9 1-.9zm-21.4.2c.1-.1.3-.1.5-.1h.2c.3.1.5.3.6.4.1.1.2.4.1.7-.1.5-.6.8-1.1.7-.5-.1-.8-.6-.7-1.2 0-.2.2-.4.4-.5zm-20.5 0h.2c.5.1.7.6.6 1.1-.1.3-.3.4-.4.5-.1.1-.4.2-.7.1-.3-.1-.4-.3-.5-.4-.1-.1-.2-.4-.1-.7.2-.4.5-.6.9-.6zm-21.3.1c.1 0 .2-.1.3-.1h.3c.3.1.4.3.4.4 0 .1.1.3 0 .6-.1.4-.6.6-1 .5-.4-.1-.6-.6-.5-1 .2-.2.4-.3.5-.4zm-20.3 1.4c-.1 0-.3.1-.5 0s-.3-.3-.4-.4c0-.1-.1-.3 0-.5.1-.3.4-.4.6-.4.1 0 .2 0 .3.1.3.2.5.6.4.9-.2.2-.3.3-.4.3zm-21.4-1.3h.2c.1 0 .2 0 .3.1.2.1.3.3.3.4 0 .1.1.3 0 .5s-.3.3-.4.3c-.1 0-.3.1-.5 0s-.3-.3-.3-.4c0-.1-.1-.3 0-.5.1-.3.3-.3.4-.4zm-21.1 1.1c-.3-.2-.4-.5-.2-.8.1-.2.3-.3.5-.3.1 0 .2 0 .3.1.2.1.2.3.3.4 0 .1 0 .3-.1.4-.2.3-.5.4-.8.2zm-20.5.1c-.1 0-.3 0-.4-.1-.2-.2-.3-.5-.1-.8.1-.2.3-.2.4-.2h.1c.1 0 .2 0 .3.1.2.1.2.3.2.4 0 .1 0 .3-.1.4-.2.1-.3.2-.4.2zM90.5 4.5c.1 0 .3 0 .4.1.2.2.2.5.1.7-.2.2-.5.2-.7.1-.3-.1-.3-.2-.3-.3 0-.1 0-.2.1-.4.1-.1.3-.2.4-.2zm-73.6.2c.1 0 .2 0 .3.1.1.1.1.4 0 .5-.1.1-.2.1-.3.1-.1 0-.2 0-.2-.1-.1-.1-.1-.2-.1-.3s0-.2.1-.2c.1-.1.2-.1.2-.1zm20.9.7c-.1 0-.2 0-.2-.1-.1-.2-.1-.4.1-.5.2-.1.4-.1.5.1.1.2.1.4-.1.5h-.3zm20.8-.7c.1 0 .2-.1.2-.1h.1c.1 0 .2.1.3.2.1.2 0 .5-.2.6-.2.1-.5.1-.6-.1-.1-.1-.1-.2-.1-.3l.3-.3zm-52.1.5v-.3h.2c.1.1.1.2 0 .3h-.2z"/><ellipse transform="rotate(-40.555 27.606 5.04)" cx="27.6" cy="5" rx=".4" ry=".4"/><path d="M48.6 4.7c.1 0 .2.1.3.2.1.1 0 .3-.1.4-.1.1-.2.1-.3.1-.1 0-.2 0-.2-.1-.1-.1-.1-.2-.1-.3 0-.1 0-.2.2-.2 0-.1.1-.1.2-.1zm21.3.1c.1.2 0 .5-.2.6-.1.1-.2.1-.3.1-.1 0-.2-.1-.3-.2-.1-.2-.1-.5.1-.6.3-.1.5-.1.7.1z"/></g></svg>