<svg id="Layer_1" xmlns="http://www.w3.org/2000/svg" viewBox="0 0 360.6 10.1"><style>.st0{opacity:0.4;}</style><g class="st0"><circle cx="8" cy="5" r="1.6"/><path d="M29 3.6s-.1 0 0 0c-.8 0-1.5.7-1.4 1.5 0 .8.7 1.4 1.5 1.4s1.4-.7 1.4-1.5c-.1-.8-.8-1.4-1.5-1.4zm20.9.1h-.1c-.7.1-1.2.7-1.2 1.4.1.7.7 1.2 1.4 1.2.7-.1 1.2-.7 1.2-1.4 0-.3-.2-.7-.5-.9-.2-.1-.5-.3-.8-.3zm21 .2h-.2c-.3 0-.6.2-.8.4-.2.2-.3.6-.2.9.1.6.7 1.1 1.3 1 .6-.1 1.1-.7 1-1.3 0-.3-.2-.6-.4-.8-.2-.2-.5-.2-.7-.2zm20.9.1h-.2c-.6.1-1 .7-.9 1.2.1.6.7 1 1.2.9.6-.1 1-.7.9-1.2 0-.6-.5-.9-1-.9zm20.5 1.9c.1.1.4.2.7.1.5-.1.8-.6.7-1.2-.1-.4-.5-.7-.9-.7h-.2c-.5.1-.8.6-.7 1.1 0 .4.3.6.4.7zm21.4-1.7h-.2c-.3.1-.4.3-.5.4-.1.1-.2.4-.1.7.1.3.3.4.4.5.1.1.4.2.7.1.5-.1.7-.6.6-1.1-.2-.4-.5-.6-.9-.6zm21 .1h-.3c-.4.1-.6.6-.5 1 .1.3.3.4.4.4.1.1.3.1.6 0s.4-.3.4-.4c0-.1.1-.3 0-.6 0-.2-.3-.4-.6-.4zm20.9 0c-.1 0-.2 0-.3.1-.2.1-.3.3-.4.4 0 .1-.1.3 0 .5s.3.3.4.4c.1 0 .3.1.5 0 .4-.2.5-.6.4-.9-.1-.3-.3-.5-.6-.5zm20.8 1.3c.1 0 .3.1.5 0s.3-.3.3-.4c0-.1.1-.3 0-.5s-.3-.3-.4-.3h-.2c-.1 0-.2 0-.3.1-.2.1-.3.3-.3.4 0 .1-.1.3 0 .5.1.1.3.2.4.2zm21.3-1.1h-.1c-.1 0-.2 0-.3.1-.3.1-.3.2-.3.3 0 .1 0 .3.1.4.1.2.3.2.4.3.1 0 .3 0 .4-.1.2-.1.2-.3.3-.4 0-.1 0-.3-.1-.4-.2-.1-.3-.2-.4-.2zm20.8 0c-.1 0-.2 0-.3.1-.2.2-.3.5-.1.8.2.2.5.3.8.1.2-.2.3-.5.1-.8-.2-.1-.4-.2-.5-.2zm20.9 1.1c.1 0 .2 0 .4-.1.2-.2.2-.5.1-.7-.1-.1-.2-.2-.4-.2-.1 0-.2 0-.3.1-.1.1-.2.3-.2.4 0 .1 0 .2.1.4 0 0 .2.1.3.1zm21-1.1c-.1 0-.2 0-.4.2s-.2.5 0 .7c.2.2.5.2.7 0 .1-.1.2-.3.2-.4 0-.1 0-.2-.2-.4-.1-.1-.2-.1-.3-.1z"/><circle cx="18.7" cy="5" r="1.6"/><path d="M39.7 3.6s-.1 0 0 0c-.4 0-.8.2-1 .5-.3.3-.4.6-.4 1s.2.7.5 1c.3.3.6.4 1 .4.8 0 1.4-.7 1.4-1.5-.1-.8-.8-1.4-1.5-1.4zm20.9.1h-.1c-.3 0-.7.2-.9.5-.2.3-.3.6-.3.9.1.7.7 1.2 1.4 1.2.7-.1 1.2-.7 1.2-1.4 0-.3-.2-.7-.5-.9-.2-.1-.5-.3-.8-.3zm21 .2h-.2c-.3 0-.6.2-.8.4-.2.2-.3.6-.2.9 0 .3.2.6.4.8.2.2.6.3.9.2.6-.1 1.1-.7 1-1.3 0-.3-.2-.6-.4-.8-.2-.2-.5-.2-.7-.2zm20.9.1h-.2c-.6.1-1 .7-.9 1.2.1.6.7 1 1.2.9.6-.1 1-.7.9-1.2 0-.6-.5-.9-1-.9zm21.5.2c-.1-.1-.3-.1-.5-.1h-.2c-.3.1-.5.3-.6.4-.1.1-.2.4-.1.7.1.5.6.8 1.1.7.5-.1.8-.6.7-1.2-.1-.2-.3-.4-.4-.5zm20.4 0h-.2c-.5.1-.7.6-.6 1.1.1.3.3.4.4.5.1.1.4.2.7.1.3-.1.4-.3.5-.4.1-.1.2-.4.1-.7-.2-.4-.5-.6-.9-.6zm21.3.1c-.1 0-.2-.1-.3-.1h-.3c-.3.1-.4.3-.4.4 0 .1-.1.3 0 .6.1.4.6.6 1 .5.4-.1.6-.6.5-1-.2-.2-.4-.3-.5-.4zm20.4 1.4c.1 0 .3.1.5 0s.3-.3.4-.4c0-.1.1-.3 0-.5-.1-.3-.4-.4-.6-.4-.1 0-.2 0-.3.1-.3.2-.5.6-.4.9.1.2.3.3.4.3zm21.3-1.3h-.2c-.1 0-.2 0-.3.1-.2.1-.3.3-.3.4 0 .1-.1.3 0 .5s.3.3.4.3c.1 0 .3.1.5 0s.3-.3.3-.4c0-.1.1-.3 0-.5-.1-.3-.3-.3-.4-.4zm21.1 1.1c.3-.2.4-.5.2-.8-.1-.2-.3-.3-.5-.3-.1 0-.2 0-.3.1-.2.1-.2.3-.3.4 0 .1 0 .3.1.4.2.3.5.4.8.2zm20.6.1c.1 0 .3 0 .4-.1.2-.2.3-.5.1-.8-.1-.2-.3-.2-.4-.2h-.1c-.1 0-.2 0-.3.1-.2.1-.2.3-.2.4 0 .1 0 .3.1.4.1.1.3.2.4.2zm21-1.1c-.1 0-.3 0-.4.1-.2.2-.2.5-.1.7.2.2.5.2.7.1.1-.1.2-.3.2-.4 0-.1 0-.2-.1-.4 0 0-.2-.1-.3-.1zm73.6.2c-.1 0-.2 0-.3.1-.1.1-.1.4 0 .5.1.1.2.1.3.1.1 0 .2 0 .2-.1.1-.1.1-.2.1-.3s0-.2-.1-.2c0-.1-.1-.1-.2-.1zm-20.9.7c.1 0 .2 0 .2-.1.1-.2.1-.4-.1-.5-.2-.1-.4-.1-.5.1-.1.2-.1.4.1.5h.3zM302 4.7c-.1 0-.2-.1-.2-.1h-.1c-.1 0-.2.1-.3.2-.1.2-.1.5.1.6.2.1.5.1.6-.1.1-.1.1-.2.1-.3 0-.1-.1-.2-.2-.3zm52.1.5c.1-.1.1-.2 0-.3h-.2c-.1.1-.1.2 0 .3h.2z"/><ellipse transform="rotate(-49.445 333.005 5.04)" cx="333" cy="5" rx=".4" ry=".4"/><path d="M312.1 4.7c-.1 0-.1 0 0 0-.1 0-.2.1-.3.2-.1.2-.1.4.1.5.1.1.2.1.3.1.1 0 .2 0 .2-.1.1-.1.1-.2.1-.3 0-.1 0-.2-.2-.2-.1-.2-.2-.2-.2-.2zm-21.3.1c-.1.2-.1.5.1.6.1.1.2.1.3.1.1 0 .2-.1.3-.2.1-.2.1-.5-.1-.6-.3-.1-.5-.1-.6.1z"/></g></svg>