<svg xmlns="http://www.w3.org/2000/svg"><symbol id="icon-arrow-bottom" viewBox="0 0 7 4"><title>Rectangle 120</title><path d="M3.926 4h-.943L0 0h7L3.926 4z" fill="#333" fill-rule="evenodd"/></symbol><symbol id="icon-arrow-top" viewBox="0 0 7 4"><title>Rectangle 120</title><path d="M3.074 0h.943L7 4H0l3.074-4z" fill="#333" fill-rule="evenodd"/></symbol><symbol id="icon-beamed-note" viewBox="0 0 20 20"><path d="M17 1l-.002 13c0 1.243-1.301 3-3.748 3-1.243 0-2.25-.653-2.25-1.875 0-1.589 1.445-2.55 3-2.55.432 0 .754.059 1 .123V5.364L8 6.637V16h-.002c0 1.243-1.301 3-3.748 3C3.007 19 2 18.347 2 17.125c0-1.589 1.445-2.55 3-2.55.432 0 .754.059 1 .123V3l11-2z"/></symbol><symbol id="icon-bell" viewBox="0 0 20 20"><path d="M14.65 8.512c-2.28-4.907-3.466-6.771-7.191-6.693-1.327.027-1.009-.962-2.021-.587-1.01.375-.143.924-1.177 1.773-2.902 2.383-2.635 4.587-1.289 9.84.567 2.213-1.367 2.321-.602 4.465.559 1.564 4.679 2.219 9.025.607 4.347-1.613 7.086-4.814 6.527-6.378-.765-2.145-2.311-.961-3.272-3.027zm-3.726 8.083c-3.882 1.44-7.072.594-7.207.217-.232-.65 1.253-2.816 5.691-4.463 4.438-1.647 6.915-1.036 7.174-.311.153.429-1.775 3.116-5.658 4.557zm-1.248-3.494c-2.029.753-3.439 1.614-4.353 2.389.643.584 1.847.726 3.046.281 1.527-.565 2.466-1.866 2.095-2.904l-.016-.036c-.251.082-.508.171-.772.27z"/></symbol><symbol id="icon-chat" viewBox="0 0 20 20"><path d="M5.8 12.2V6H2C.9 6 0 6.9 0 8v6c0 1.1.9 2 2 2h1v3l3-3h5c1.1 0 2-.9 2-2v-1.82a.943.943 0 0 1-.2.021h-7V12.2zM18 1H9c-1.1 0-2 .9-2 2v8h7l3 3v-3h1c1.1 0 2-.899 2-2V3c0-1.1-.9-2-2-2z"/></symbol><symbol id="icon-check" viewBox="0 0 10 8"><title>Rectangle 46 + Rectangle 46</title><g fill="#FFF" fill-rule="evenodd"><path d="M.457 3.834l1.438-1.389L5.37 6.042 3.929 7.43z"/><path d="M8.426.437l1.389 1.439L4.06 7.433 2.67 5.994z"/></g></symbol><symbol id="icon-logo" viewBox="0 0 272 78"><title>sborka-project</title><g fill="#1A1918" fill-rule="evenodd"><path d="M68.288 77.863h1.418V75.36h2.466v-1.282h-2.466V72.3h2.978v-1.33h-4.396v6.893M77.689 74.322c-.267.2-.738.296-1.406.296h-.433V72.29h.433c.662 0 1.13.097 1.403.294.27.196.408.486.408.87s-.135.674-.405.868zm1.522.33c.197-.33.298-.73.298-1.198 0-.88-.301-1.513-.91-1.9-.606-.39-1.513-.583-2.718-.583h-1.446v6.892h1.415V75.84h.452c.12 0 .238-.003.351-.013a6.2 6.2 0 0 0 .34-.028l1.327 2.063h1.59l-1.572-2.434c.38-.19.672-.45.873-.777zM86.161 75.404c-.088.275-.21.512-.37.708a1.68 1.68 0 0 1-.562.456 1.667 1.667 0 0 1-.725.162c-.26 0-.502-.056-.721-.162a1.746 1.746 0 0 1-.571-.456 2.149 2.149 0 0 1-.374-.708 3.114 3.114 0 0 1-.135-.939c0-.346.047-.658.135-.936.088-.278.214-.515.374-.708a1.632 1.632 0 0 1 1.292-.618c.26 0 .503.053.725.162.217.106.408.256.562.456.16.193.282.43.37.708.088.278.132.59.132.936 0 .35-.044.658-.132.94zm.647-3.582a3.135 3.135 0 0 0-1.036-.714 3.13 3.13 0 0 0-1.268-.256 3.182 3.182 0 0 0-2.309.97c-.295.312-.527.69-.694 1.127-.169.44-.25.933-.25 1.472 0 .54.081 1.033.25 1.47.167.443.399.817.694 1.13a3.182 3.182 0 0 0 2.31.97 3.13 3.13 0 0 0 1.267-.256c.396-.169.74-.409 1.036-.715a3.36 3.36 0 0 0 .69-1.13c.166-.436.251-.929.251-1.469s-.085-1.032-.25-1.472a3.408 3.408 0 0 0-.691-1.127zM93.962 74.89l-3.753-3.97h-.524v6.943h1.378v-4.006l3.853 4.056h.424V70.97h-1.378v3.918M97.062 72.3h2.075v5.563h1.437V72.3h2.061v-1.33h-5.573v1.33M103.809 74.38h3.245v1.246h-3.245V74.38zM110.603 75.045h2.369v-1.26h-2.37V72.3h2.982v-1.33h-4.397v6.893h4.425v-1.26h-3.01v-1.558M119.885 74.89l-3.756-3.97h-.521v6.943h1.374v-4.006l3.857 4.056h.423V70.97h-1.377v3.918M126.97 76.05c-.364.368-.904.552-1.62.552h-.46V72.3h.46c.716 0 1.256.187 1.62.561.364.378.546.908.546 1.598 0 .692-.182 1.223-.546 1.591zm.807-4.284c-.377-.277-.829-.477-1.353-.605a7.42 7.42 0 0 0-1.72-.19h-1.252v6.892h1.253c.627 0 1.201-.063 1.722-.184.521-.125.973-.325 1.35-.6.376-.274.671-.627.878-1.066.21-.434.317-.961.317-1.582 0-.624-.107-1.158-.317-1.591a2.786 2.786 0 0 0-.878-1.074zM137.605 74.4c-.27.209-.738.315-1.4.315h-.49V72.29h.49c.662 0 1.13.106 1.4.319.273.212.414.511.414.895s-.141.68-.414.896zm.928-2.83c-.612-.4-1.522-.6-2.73-.6h-1.506v6.893h1.419v-1.888h.514c1.033 0 1.83-.215 2.385-.643.559-.42.838-1.035.838-1.828 0-.89-.305-1.535-.92-1.934zM144.527 74.322c-.267.2-.738.296-1.41.296h-.429V72.29h.43c.662 0 1.13.097 1.406.294.27.196.404.486.404.87s-.134.674-.401.868zm1.519.33c.197-.33.3-.73.3-1.198 0-.88-.304-1.513-.91-1.9-.605-.39-1.515-.583-2.72-.583h-1.446v6.892h1.418V75.84h.452c.12 0 .235-.003.351-.013.116-.006.23-.015.34-.028l1.323 2.063h1.594l-1.568-2.434c.373-.19.668-.45.866-.777zM153 75.404a2.262 2.262 0 0 1-.368.708c-.16.194-.351.347-.568.456a1.643 1.643 0 0 1-.722.162c-.263 0-.505-.056-.721-.162a1.746 1.746 0 0 1-.571-.456 2.214 2.214 0 0 1-.377-.708 3.117 3.117 0 0 1-.132-.939c0-.346.044-.658.132-.936a2.15 2.15 0 0 1 .377-.708 1.632 1.632 0 0 1 1.292-.618 1.6 1.6 0 0 1 .722.162c.217.106.408.256.568.456.154.193.28.43.367.708.088.278.135.59.135.936 0 .35-.047.658-.135.94zm.643-3.582a3.122 3.122 0 0 0-1.033-.714 3.141 3.141 0 0 0-1.268-.256c-.451 0-.878.084-1.274.256a3.116 3.116 0 0 0-1.038.714c-.292.312-.524.69-.697 1.127-.163.44-.248.933-.248 1.472 0 .54.085 1.033.248 1.47.173.443.405.817.697 1.13a3.171 3.171 0 0 0 2.313.97c.451 0 .872-.085 1.267-.256a3.122 3.122 0 0 0 1.033-.715c.294-.312.527-.686.693-1.13.163-.436.251-.929.251-1.469s-.088-1.032-.251-1.472a3.364 3.364 0 0 0-.693-1.127zM160.04 76.05c-.363.368-.906.552-1.618.552h-.462V72.3h.462c.712 0 1.255.187 1.619.561.36.378.546.908.546 1.598 0 .692-.185 1.223-.546 1.591zm.804-4.284c-.373-.277-.828-.477-1.35-.605a7.468 7.468 0 0 0-1.722-.19h-1.249v6.892h1.249c.63 0 1.202-.063 1.726-.184a3.685 3.685 0 0 0 1.346-.6c.38-.274.675-.627.882-1.066.207-.434.314-.961.314-1.582 0-.624-.107-1.158-.314-1.591a2.765 2.765 0 0 0-.882-1.074zM168.077 74.995c0 .584-.116 1.014-.345 1.298-.226.284-.584.425-1.073.425-.49 0-.844-.14-1.067-.425-.217-.284-.327-.714-.327-1.298v-4.024h-1.437v4.134c0 .954.245 1.672.738 2.162.495.49 1.186.733 2.074.733.878 0 1.569-.246 2.074-.74.499-.492.75-1.21.75-2.155V70.97h-1.387v4.024M175.32 76.64a2.752 2.752 0 0 1-.631.068c-.298 0-.565-.05-.804-.156a1.671 1.671 0 0 1-.608-.449 1.935 1.935 0 0 1-.386-.708 2.821 2.821 0 0 1-.142-.936c0-.696.173-1.245.521-1.65.349-.403.822-.606 1.437-.606.063 0 .145.006.233.016a3.362 3.362 0 0 1 .568.1c.094.024.175.053.25.077l.383-1.279a3.74 3.74 0 0 0-.567-.174 4.557 4.557 0 0 0-.948-.09 3.48 3.48 0 0 0-1.271.233 3.18 3.18 0 0 0-1.07.69 3.43 3.43 0 0 0-.734 1.12c-.185.446-.276.951-.276 1.525 0 .58.09 1.092.276 1.535.182.443.43.815.734 1.114.31.303.668.528 1.08.687.407.156.837.234 1.292.234.308 0 .596-.035.863-.103.27-.069.483-.138.64-.21l-.401-1.157a4.25 4.25 0 0 1-.44.119M177.547 72.3h2.074v5.563h1.438V72.3h2.061v-1.33h-5.573v1.33M184.893 70.97h1.437v6.843h-1.437V70.97zM193.228 75.404c-.088.275-.21.512-.37.708a1.692 1.692 0 0 1-.566.456 1.656 1.656 0 0 1-.724.162c-.26 0-.5-.056-.725-.162a1.723 1.723 0 0 1-.565-.456 2.092 2.092 0 0 1-.374-.708 3.019 3.019 0 0 1-.134-.939c0-.346.043-.658.134-.936.088-.278.21-.515.374-.708a1.612 1.612 0 0 1 1.29-.618 1.614 1.614 0 0 1 1.29.618c.16.193.282.43.37.708.087.278.128.59.128.936 0 .35-.04.658-.128.94zm.643-3.582a3.155 3.155 0 0 0-2.303-.97c-.452 0-.88.084-1.271.256a3.148 3.148 0 0 0-1.039.714c-.292.312-.524.69-.69 1.127-.17.44-.251.933-.251 1.472 0 .54.081 1.033.25 1.47.167.443.4.817.691 1.13.295.305.643.545 1.039.714.392.171.819.256 1.27.256a3.156 3.156 0 0 0 2.304-.97c.295-.313.524-.687.693-1.13.17-.437.248-.93.248-1.47 0-.54-.078-1.032-.248-1.472a3.415 3.415 0 0 0-.693-1.127zM201.028 74.89l-3.756-3.97h-.524v6.943h1.381v-4.006l3.853 4.056h.42V70.97h-1.374v3.918M125.373 29.684c-5.385 12.005-8.783 14.592-8.783 14.592-2.677-5.248 4.12-15.672 7.34-15.672 1.226 0 1.685.543 1.443 1.08zm-64.02 14.52c.609-3.36 1.415-6.034 2.3-8.165.926 1.014 2.294 1.903 4.305 2.312-3.119 5.107-7.233 9.316-6.605 5.853zm9.254-16.364c1.205 1.257.624 3.953-.697 6.867-1.842-.44-3.326-1.304-4.039-2.83 2.439-3.516 4.736-4.037 4.736-4.037zm57.574-3.694c-.313.48-.508 1.036-1.06 1.968 0 0-3.301-2.399-4.695-1.953-2.19.7-10.512 4.93-12.73 18.92-1.02 1.017-2.878 2.393-5.495 2.393-3.913 0-5.35-4.187-5.902-7.03 3.527-1.971 10.6-6.202 13.986-10.18 2.843-3.345-4.146-4.262-4.146-4.262s-2.786 6.477-8.87 10.468c5.57-11.285 11.911-24.14 12.413-25.182.499-1.036-4.418-1.65-5.924.936-.913 1.573-7.437 14.792-12.947 25.99-2.034.01-3.509-.733-2.25-3.407 1.644-3.11 3.913-6.842 4.016-7.148.16-.477-2.052-1.657-2.749-1.657-.244 0-4.336 4.543-7.013 7.538 1.801-3.657 3.116-6.321 3.339-6.748.367-.718-4.569-2.082-6.52 1.837l-4.046 8.19a31.922 31.922 0 0 1-3.64.272c.951-1.916 1.893-3.879 2.796-5.816 1.271-2.718-2.817-5.307-6.79-5.307-4.23 0-14.375 6.939-14.84 24.248-.034 1.351 3.703 3.754 7.899 3.754 1.657 0 5.363-6.022 9.216-13.479 1.167-.118 2.47-.361 3.913-.736a2801.257 2801.257 0 0 0-5.491 11.163c-1.055 2.175 3.975 3.308 4.34 2.565 2.06-4.174 4.703-9.55 7.085-14.383 1.264-1.442 4.907-4.468 4.907-4.468s-4.182 6.549 4.431 6.424c-1.955 3.978-3.696 7.522-4.886 9.931-.997 2.028 3.731 3.744 4.255 2.677.195-.39 2.172-4.4 4.84-9.797.53 3.582 1.894 10.031 4.819 10.031 2.802 0 6.712-3.35 8.855-5.42-.012.144-.028.278-.037.422-.217 3.164 4.396 5.095 5.111 5.095.913 0 5.325-6.855 5.325-6.855s-.012 2.194.615 3.847c.612 1.62 1.422 3.008 2.67 3.008 2.279 0 3.029-1.292 7.692-7.622 1.522-2.06-.64-5.024-.64-5.024s-5.143 6.125-5.768 6.125c-.916 0 3.013-8.15 3.013-8.15s4.678-9.484 5.01-10.161c.65-1.314-3.865-3.385-4.107-3.017zM225.501 27.84c4.048.908-2.639 8.708-6.182 7.528 0 0 4.754-7.85 6.182-7.528zm45.02-12.577c-1.481.253-3.577.484-6.072.67a2285.72 2285.72 0 0 0 3.17-6.448c.498-1.04-4.212-1.847-5.715.74-.389.67-1.547 2.938-3.103 6.033-15.54.652-39.017-.15-44.769-5.004-2.109-1.772-3.336 4.773 1.22 7.454 5.32 3.126 26.886 2.795 41.327 2.006-2.118 4.252-4.55 9.182-6.75 13.64-9.438 10.131-15.702 12.512-15.215 10.5 2.673-11.024 8.243-17.014 10.559-17.014 1.17 0 2.407 2.549 2.407 2.549.853.415 5.036-6.418-2.36-6.418-5.695 0-10.817 5.753-13.98 12.046-.226.231-9.922 9.934-12.896 9.457-3.945-.627-.76-7.054-.76-7.054s.719.377 2.893.178c3.085-.288 9.42-5.17 10.18-9.254.43-2.315-.163-4.465-3.49-5.077-7.666-1.404-14.572 10.674-15.852 17.588-1.102 5.918 1.5 10.14 4.33 10.14 2.78 0 8.827-4.637 12.912-8.84-1.195 4.88-.712 8.784 2.225 8.84 5.47.1 11.686-5.741 14.915-9.245 0 .003-.006.013-.01.019-3.084 6.271.867 9.226 4.337 9.226 1.877 0 7.98-7.89 8.319-8.293 1.518-1.797-.653-4.312-.653-4.312-3.49 3.785-6.348 6.084-7.01 6.084-.524 0-.289-1.058-.179-1.28 3.257-6.58 8.07-16.332 11.77-23.84 3.289-.236 5.79-.476 6.992-.657 2.284-.34 2.865-4.609 1.258-4.434zM147.97 23.178c1.157-.433 2.418-4.508.953-4.077-5.978 1.737-11.215 1.86-9.728-.06C147.55 8.284 162.83 6.823 170.201 6.823c8.827 0 9.879 2.294 9.195 3.953-5.413 13.092-16.155 15.972-20.209 16.599 2.956-5.99 5.168-10.49 5.363-10.898.615-1.295-4.635-1.875-5.98.845-1.171 2.375-15.195 30.907-19.927 40.36-1.032 2.075 3.298 4.621 3.985 3.252.251-.5 7.337-14.848 13.387-27.123 18.118-5.3 28.009-16.224 28.009-23.418 0-3.102-2.539-9.682-11.902-9.682-15.919 0-37.49 8.293-37.49 18.74 0 8.389 12.182 4.158 13.337 3.727"/><path d="M190.134 44.204c.458-2.552 1.038-4.702 1.675-6.527 1.823-.43 3.92-1.036 6.342-1.863-3.075 6.075-8.752 12.421-8.017 8.39zm9.25-16.364c.907.945.797 2.708.126 4.764-2.156.752-4.359 1.426-6.405 1.931 2.906-5.93 6.28-6.695 6.28-6.695zm10.631-1.283s-.36.724-.94 1.91c-1.121.636-2.502 1.307-4.027 1.978.157-.39.323-.78.474-1.17 1.352-3.448-4.512-6.187-8.444-5.098-2.103.583-7.472 3.64-10.679 11.329-2.08-.09-3.053-.883-2.061-2.73 1.644-3.102 3.897-6.811 3.997-7.117.164-.477-2.049-1.657-2.745-1.657-.245 0-4.337 4.543-7.01 7.538 1.798-3.657 3.112-6.321 3.335-6.748.37-.718-4.565-2.082-6.523 1.837 0 0-9.938 20.127-10.98 22.29-1.054 2.174 3.976 3.307 4.343 2.564 2.058-4.174 4.7-9.55 7.082-14.383 1.262-1.442 4.911-4.468 4.911-4.468-.383.633-.546 1.192-.568 1.685-.166 1.416.179 4.103 5.15 4.215-.8 2.736-1.334 5.944-1.435 9.684-.034 1.351 5.297 4.475 8.228 3.585 1.261-.383 7.104-8.68 11.444-17.993 1.142-.452 2.353-.954 3.602-1.488l-8.695 17.64c-.2.406-2.855 7.077-9.43 9.407-.825.29 2.486 5.91 8.636.87 2.423-1.983 4.81-7.156 4.952-7.437 4.735-9.604 13.063-26.564 13.684-27.746.719-1.38-4.393-1.913-6.3 1.503zM40.009 43.586l2.752-5.581c.872-1.772 1.782-3.62 2.708-5.495.131-.265.257-.524.392-.795.26-.527 5.353-2.727 6.583-2.727 4.409 0-7.663 14.414-12.435 14.598zM8.749 54.628c-4.525 0-2.643-7.117 15.686-15.41-.63 7.38-8.143 15.41-15.686 15.41zm47.759-30.626c-4.409 0-8.331 3.117-8.331 3.117.495-.736 1.656-3.4 2.228-4.618l.254-.514a.317.317 0 0 1 .025-.047c.003-.003 0-.01.003-.01 3.26-6.614 5.855-11.877 6.15-12.47.512-1.03-4.503-1.835-5.896.811-.888 1.685-5.052 10.071-9.338 18.748a1392.641 1392.641 0 0 0-11.548 4.23c-2.783-6.245-9.775-5.912-9.775-12.48 0-9.094 15.323-13.874 19.729-13.874 2.686 0-8.661 16.09-8.705 16.923-.047.83 2.915 2.783 6.668-1.06 4.02-4.11 5.714-7.464 7.581-11.192C48.346 5.984 45.143.71 41.531.71c-3.54 0-27.467 7.548-27.467 19.372 0 7.654 7.792 10.247 9.9 15.476C6.204 42.444 0 46.516 0 54.054c0 4.265 3.28 7.335 6.652 7.335 8.72 0 24.526-10.932 24.526-22.08 0-1.036-.078-1.96-.207-2.811 2.56-.986 5.357-1.978 8.404-2.967-2.47 5.004-4.798 9.737-6.351 12.904-.725 1.482-.299 2.799.495 3.738.004.01-.006.037-.003.05.076.153.336.383.716.62.527.397 1.095.653 1.578.721 1.186.387 2.648.543 3.926-.05C54.22 44.76 62.51 24.002 56.508 24.002z"/></g></symbol></svg>