<svg xmlns="http://www.w3.org/2000/svg" width="106" height="54" viewBox="0 0 106 54"><g><g><g><path fill="#21a4cf" d="M72.467 32.186c-.102-1.22-.213-2.6-.436-3.786-.154-.833-.492-1.94-1.635-1.94-.11 0-.228.01-.34.022-.074.006-.144.015-.257.018-.004 0-.04-.036-.088-.173-.332-.962-1.74-2.155-3.547-3.615-.445-.358-.978-.792-1.201-1.015.082-.575.07-1.284-.334-1.768-.184-.23-.535-.5-1.139-.5-.09 0-.183.008-.394.026-.436 0-1.309-.18-2.52-.43-3.115-.64-8.914-1.832-17.613-2.02-12.664-.25-22.613 8.89-23.025 9.273l-.295.273c-.52.25-2.164.85-7.182 1.84-7.12 1.4-8.477 3.672-8.734 4.546-.57.423-1.487 1.435-1.637 2.628-.12.95-.383 1.337-.383 1.337l-.125.159v6.702l.016.123c.386 1.78 2.23 2.721 5.332 2.721.99 0 1.732-.101 1.705-.101.045-.003.426-.009 1.09-.022a6.398 6.398 0 0 1-.184-.572 7.1 7.1 0 0 1-.137-.57 7.525 7.525 0 0 1-.136-1.4c0-4.12 3.351-7.47 7.47-7.47a7.475 7.475 0 0 1 7.47 7.47c0 .371-.038.733-.089 1.092-.03.195-.06.387-.105.575-.047.195-.096.39-.153.579 9.328-.202 21.196-.464 30.389-.697a7.028 7.028 0 0 1-.092-.571 5.667 5.667 0 0 1-.05-.575c-.006-.137-.022-.267-.022-.404 0-4.119 3.35-7.468 7.47-7.468 4.061 0 7.368 3.26 7.46 7.299 0 .055.01.114.01.17 0 .146-.012.285-.024.43-.01.204-.027.408-.057.606 1.754-.29 3.073-1.215 3.836-2.71 1.309-2.557.643-6.02.174-6.754-.252-.4-.377-1.955-.49-3.326z"/><path fill="none" stroke="#fff" stroke-linecap="round" stroke-linejoin="round" stroke-miterlimit="50" stroke-width="3" d="M72.467 32.186c-.102-1.22-.213-2.6-.436-3.786-.154-.833-.492-1.94-1.635-1.94-.11 0-.228.01-.34.022-.074.006-.144.015-.257.018-.004 0-.04-.036-.088-.173-.332-.962-1.74-2.155-3.547-3.615-.445-.358-.978-.792-1.201-1.015.082-.575.07-1.284-.334-1.768-.184-.23-.535-.5-1.139-.5-.09 0-.183.008-.394.026-.436 0-1.309-.18-2.52-.43-3.115-.64-8.914-1.832-17.613-2.02-12.664-.25-22.613 8.89-23.025 9.273l-.295.273c-.52.25-2.164.85-7.182 1.84-7.12 1.4-8.477 3.672-8.734 4.546-.57.423-1.487 1.435-1.637 2.628-.12.95-.383 1.337-.383 1.337v0l-.125.159v6.702l.016.123c.386 1.78 2.23 2.721 5.332 2.721.99 0 1.732-.101 1.705-.101.045-.003.426-.009 1.09-.022a6.398 6.398 0 0 1-.184-.572 7.1 7.1 0 0 1-.137-.57 7.525 7.525 0 0 1-.136-1.4c0-4.12 3.351-7.47 7.47-7.47a7.475 7.475 0 0 1 7.47 7.47c0 .371-.038.733-.089 1.092-.03.195-.06.387-.105.575-.047.195-.096.39-.153.579 9.328-.202 21.196-.464 30.389-.697a7.028 7.028 0 0 1-.092-.571 5.667 5.667 0 0 1-.05-.575c-.006-.137-.022-.267-.022-.404 0-4.119 3.35-7.468 7.47-7.468 4.061 0 7.368 3.26 7.46 7.299 0 .055.01.114.01.17 0 .146-.012.285-.024.43-.01.204-.027.408-.057.606 1.754-.29 3.073-1.215 3.836-2.71 1.309-2.557.643-6.02.174-6.754-.252-.4-.377-1.955-.49-3.326z"/></g><g><path fill="#21a4cf" d="M53.652 43.867a7.828 7.828 0 1 1 15.657 0 7.828 7.828 0 0 1-15.657 0z"/><path fill="none" stroke="#fff" stroke-linecap="round" stroke-linejoin="round" stroke-miterlimit="50" stroke-width="3" d="M53.652 43.867a7.828 7.828 0 1 1 15.657 0 7.828 7.828 0 0 1-15.657 0z"/></g><g><path fill="#21a4cf" d="M9.255 43.867a7.828 7.828 0 1 1 15.657 0 7.828 7.828 0 0 1-15.657 0z"/><path fill="none" stroke="#fff" stroke-linecap="round" stroke-linejoin="round" stroke-miterlimit="50" stroke-width="3" d="M9.255 43.867a7.828 7.828 0 1 1 15.657 0 7.828 7.828 0 0 1-15.657 0z"/></g><g><path fill="none" stroke="#fff" stroke-linecap="round" stroke-linejoin="round" stroke-miterlimit="50" stroke-width="3" d="M56.699 26.553H19.645"/></g><g><path fill="none" stroke="#fff" stroke-linecap="round" stroke-linejoin="round" stroke-miterlimit="50" stroke-width="3" d="M44.723 22.677v7.751"/></g></g><g><path fill="none" stroke="#64d282" stroke-linecap="round" stroke-linejoin="round" stroke-miterlimit="50" stroke-width="7" d="M83.501 11.084v0l5.288 5.534v0l12.913-12.544v0"/></g></g></svg>