<svg xmlns="http://www.w3.org/2000/svg" width="75" height="62" viewBox="0 0 75 62"><g><g><g><path fill="#21a4cf" d="M2 16.432c0-1 1-2 2-2h33.05c1 0 2 1 2 2v33.051c0 1-1 2-2 2H4c-1 0-2-1-2-2z"/><path fill="none" stroke="#fff" stroke-linecap="round" stroke-linejoin="round" stroke-miterlimit="50" stroke-width="3" d="M2 16.432c0-1 1-2 2-2h33.05c1 0 2 1 2 2v33.051c0 1-1 2-2 2H4c-1 0-2-1-2-2z"/></g><g><path fill="none" stroke="#fff" stroke-linecap="round" stroke-linejoin="round" stroke-miterlimit="50" stroke-width="3" d="M39.05 24.905H2"/></g><g><path fill="none" stroke="#fff" stroke-linecap="round" stroke-linejoin="round" stroke-miterlimit="50" stroke-width="3" d="M8.344 10v7.754"/></g><g><path fill="none" stroke="#fff" stroke-linecap="round" stroke-linejoin="round" stroke-miterlimit="50" stroke-width="3" d="M20.527 10v7.751"/></g><g><path fill="none" stroke="#fff" stroke-linecap="round" stroke-linejoin="round" stroke-miterlimit="50" stroke-width="3" d="M32.206 10v7.751"/></g><g><path fill="#21a4cf" d="M21.783 45.495c0-7.868 6.378-14.246 14.246-14.246s14.246 6.378 14.246 14.246-6.378 14.246-14.246 14.246-14.246-6.378-14.246-14.246z"/><path fill="none" stroke="#fff" stroke-linecap="round" stroke-linejoin="round" stroke-miterlimit="50" stroke-width="3" d="M21.783 45.495c0-7.868 6.378-14.246 14.246-14.246s14.246 6.378 14.246 14.246-6.378 14.246-14.246 14.246-14.246-6.378-14.246-14.246z"/></g><g><g><path fill="none" stroke="#fff" stroke-linecap="round" stroke-linejoin="round" stroke-miterlimit="50" stroke-width="3" d="M35.692 38.573v7.754"/></g><g><path fill="none" stroke="#fff" stroke-linecap="round" stroke-linejoin="round" stroke-miterlimit="50" stroke-width="3" d="M41.12 51.851l-5.48-5.48"/></g></g></g><g><path fill="none" stroke="#64d282" stroke-linecap="round" stroke-linejoin="round" stroke-miterlimit="50" stroke-width="7" d="M52.501 11.084v0l5.288 5.534v0L70.702 4.074v0"/></g></g></svg>