<svg xmlns="http://www.w3.org/2000/svg" width="43" height="44" viewBox="0 0 43 44"><g><g><path fill="#fff" d="M.998 22c0-11.598 9.178-21 20.5-21s20.5 9.402 20.5 21-9.178 21-20.5 21-20.5-9.402-20.5-21z"/><path fill="none" stroke="#0096c8" stroke-miterlimit="50" d="M.998 22c0-11.598 9.178-21 20.5-21s20.5 9.402 20.5 21-9.178 21-20.5 21-20.5-9.402-20.5-21z"/></g><g><path fill="#0096c8" d="M30.771 16.405v-4.044h-.53l-3.521.01.012 4.047h.002zm-9.19 9.337a4.21 4.21 0 0 0 4.21-4.201c0-.872-.276-1.717-.798-2.443a4.215 4.215 0 0 0-3.408-1.753 4.24 4.24 0 0 0-3.416 1.749 4.18 4.18 0 0 0-.793 2.447 4.159 4.159 0 0 0 1.23 2.967 4.187 4.187 0 0 0 2.976 1.234zm9.625 3.122v-9.766h-3.573c.322.782.485 1.603.485 2.443 0 3.599-2.932 6.527-6.536 6.527-3.605 0-6.538-2.928-6.538-6.527 0-.844.163-1.665.483-2.443h-3.57v9.766a2.29 2.29 0 0 0 2.295 2.281h14.662a2.29 2.29 0 0 0 2.292-2.28zm-2.292-19.25c2.55 0 4.623 2.069 4.623 4.612v14.638a4.62 4.62 0 0 1-4.62 4.612H14.251a4.62 4.62 0 0 1-4.62-4.612V14.226a4.62 4.62 0 0 1 4.62-4.612zm7.08 27.235C39.868 32.883 42 27.61 42 22s-2.133-10.882-6.005-14.85C32.123 3.185 26.975 1 21.499 1 16.024 1 10.876 3.184 7.004 7.15 3.132 11.118 1 16.39 1 22c0 5.61 2.132 10.883 6.004 14.85 3.872 3.966 9.02 6.15 14.495 6.15 5.477 0 10.624-2.184 14.496-6.15z"/></g></g></svg>