<svg xmlns="http://www.w3.org/2000/svg" width="45" height="44" viewBox="0 0 45 44"><g><g><g><path fill="#fff" d="M22.742 43c-11.598 0-21-9.402-21-21s9.402-21 21-21 21 9.402 21 21-9.402 21-21 21z"/><path fill="none" stroke="#0096c8" stroke-linecap="round" stroke-miterlimit="50" stroke-width="2" d="M22.742 43c-11.598 0-21-9.402-21-21s9.402-21 21-21 21 9.402 21 21-9.402 21-21 21z"/></g></g><g><path fill="#0096c8" d="M13.293 17.015c.539 0 1.102.005 1.675.015.43.006.743.24.929.695.644 1.584 1.386 2.96 2.27 4.205.23.325.49.692.856.943.149.102.286.153.408.153.201 0 .362-.14.478-.414.102-.242.165-.523.196-.881.102-1.184.085-2.167-.054-3.092-.097-.654-.476-1.062-1.098-1.18-.142-.027-.218-.065-.237-.12-.023-.065.03-.147.117-.25.283-.33.545-.521 1.049-.521h3.865c.611.12.744.395.827 1.005l.004 4.294c-.007.227.115.939.545 1.097a.5.5 0 0 0 .155.026c.238 0 .418-.192.576-.36l.004-.004.037-.04c.982-1.043 1.651-2.276 2.176-3.346.273-.551.507-1.128.705-1.625.165-.414.425-.599.845-.599h.03l3.72.004a2 2 0 0 1 .328.02c.323.055.517.152.611.306.094.155.092.371-.006.682-.293.924-.862 1.71-1.411 2.472l-.068.093c-.291.403-.597.807-.894 1.198-.334.44-.679.896-1.005 1.353-.56.783-.522 1.185.182 1.871.206.201.418.402.623.597.572.54 1.162 1.1 1.676 1.716.276.333.59.735.824 1.187.168.325.175.7.018.976a.666.666 0 0 1-.538.35l-3.42-.002c-.076.007-.152.01-.227.01-.722 0-1.36-.293-1.951-.895a29.532 29.532 0 0 1-.924-1.002c-.145-.161-.294-.329-.444-.492a3.29 3.29 0 0 0-.615-.547.943.943 0 0 0-.505-.174c-.253 0-.472.156-.634.45-.258.47-.33.978-.36 1.596-.036.79-.27 1.017-1.09 1.054-.203.01-.4.014-.586.014-1.644 0-3.053-.348-4.307-1.066-1.201-.688-2.248-1.667-3.293-3.083-1.522-2.062-2.858-4.444-4.334-7.725-.137-.305-.155-.54-.054-.7.1-.159.32-.242.653-.248.54-.01 1.104-.016 1.673-.016zM30.916 41.35a20.93 20.93 0 0 0 6.676-4.5 20.93 20.93 0 0 0 6.15-14.85 20.93 20.93 0 0 0-6.15-14.849A20.93 20.93 0 0 0 22.742 1a20.93 20.93 0 0 0-14.85 6.15A20.93 20.93 0 0 0 1.743 22a20.93 20.93 0 0 0 6.15 14.85 20.93 20.93 0 0 0 14.85 6.15c2.835 0 5.586-.556 8.175-1.65z"/></g></g></svg>