<svg xmlns="http://www.w3.org/2000/svg" width="45" height="44" viewBox="0 0 45 44"><defs><clipPath id="89sqa"><path d="M22.635 43c-11.598 0-21-9.402-21-21s9.402-21 21-21 21 9.402 21 21-9.402 21-21 21z"/></clipPath></defs><g><g><path fill="#fff" d="M22.635 43c-11.598 0-21-9.402-21-21s9.402-21 21-21 21 9.402 21 21-9.402 21-21 21z"/><path fill="none" stroke="#0096c8" stroke-linecap="round" stroke-miterlimit="50" stroke-width="2" d="M22.635 43c-11.598 0-21-9.402-21-21s9.402-21 21-21 21 9.402 21 21-9.402 21-21 21z"/></g><g><g><path fill="#0096c8" d="M22.635 43c-11.598 0-21-9.402-21-21s9.402-21 21-21 21 9.402 21 21-9.402 21-21 21z"/></g><g clip-path="url(#89sqa)"><g><g><path fill="#0096c8" d="M27.857 22.74h-3.416v12.177h-5.063V22.739h-2.406v-4.304h2.406v-2.783c0-1.994.948-5.11 5.11-5.11l3.75.015v4.178h-2.722c-.443 0-1.074.221-1.074 1.172v2.53H28.3zM22.635 1c-11.58 0-21 9.42-21 21 0 11.579 9.42 21 21 21 11.578 0 21-9.421 21-21 0-11.58-9.42-21-21-21z"/></g></g></g></g></g></svg>