<svg xmlns="http://www.w3.org/2000/svg" width="196" height="68" viewBox="0 0 196 68"><g><g><g><g><g><path fill="#0096c8" d="M185.947 46.18a3.14 3.14 0 0 0-.14.549 4.149 4.149 0 0 0-.013 1.156c.022.168.06.33.103.486a2.643 2.643 0 0 0 .393.82c.118.159.262.302.43.427.168.124.358.23.573.317.218.088.468.156.748.2.271.044.574.069.91.069h4.353V44.5h-4.029c-.34 0-.648.019-.922.056a4.736 4.736 0 0 0-.78.165 3.365 3.365 0 0 0-.613.259c-.18.1-.34.218-.474.346a2.451 2.451 0 0 0-.315.392c-.09.147-.165.3-.224.462zm3.518-4.1h5.958a.496.496 0 0 1 .495.492v13.543a.495.495 0 0 1-.145.35.495.495 0 0 1-.35.145H193.8a.49.49 0 0 1-.35-.146.49.49 0 0 1-.146-.349v-3.487c-1.533 0-3.219.09-4.752-.028l-2.368 3.752a.494.494 0 0 1-.43.255h-1.926a.526.526 0 0 1-.268-.081.497.497 0 0 1-.212-.314.485.485 0 0 1 .072-.368l2.57-3.892a5.404 5.404 0 0 1-.763-.436 4.726 4.726 0 0 1-1.013-.93l-.012-.015a4.83 4.83 0 0 1-.81-1.49 5.45 5.45 0 0 1-.271-1.714c0-.395.034-.778.102-1.15a5.22 5.22 0 0 1 .309-1.046c.137-.33.309-.639.514-.926.203-.283.443-.542.71-.773.266-.227.562-.43.886-.6a5.754 5.754 0 0 1 1.081-.437 7.868 7.868 0 0 1 1.265-.262c.458-.06.95-.09 1.477-.09zm-17.245 6.403v5.675h3.515c.412 0 .782-.025 1.119-.069.346-.046.66-.115.938-.205a3.5 3.5 0 0 0 .738-.327c.219-.131.406-.278.561-.437l.003-.003a2.154 2.154 0 0 0 .495-.767l.004-.002c.06-.153.1-.315.131-.484.028-.17.044-.355.044-.542 0-.227-.016-.442-.044-.635a2.774 2.774 0 0 0-.143-.549 2.164 2.164 0 0 0-.592-.857 2.898 2.898 0 0 0-.518-.333c-.2-.1-.42-.184-.667-.253a5.675 5.675 0 0 0-.829-.159 8.393 8.393 0 0 0-.966-.053zm3.325 8.124h-5.444a.495.495 0 0 1-.349-.146.495.495 0 0 1-.146-.35V42.57a.495.495 0 0 1 .492-.496h1.623a.495.495 0 0 1 .495.492v3.46h4.192c.427 0 .839.028 1.228.078.399.053.773.134 1.119.233.364.11.7.243 1.01.4.32.161.61.348.875.557l.003.003a4.448 4.448 0 0 1 1.293 1.733c.147.34.253.7.328 1.084.071.384.109.782.109 1.197 0 .361-.031.71-.097 1.044a4.653 4.653 0 0 1-.763 1.826 4.48 4.48 0 0 1-.658.741c-.299.275-.642.52-1.025.733a6.723 6.723 0 0 1-1.253.527c-.44.137-.92.24-1.433.311-.505.069-1.041.103-1.605.103zm-28.436-11.95a5.633 5.633 0 0 0-.972-.259 6.46 6.46 0 0 0-2.125 0c-.34.06-.667.146-.972.259a4.64 4.64 0 0 0-.857.414 4.244 4.244 0 0 0-.72.561 3.96 3.96 0 0 0-.564.682c-.162.25-.302.524-.418.826a5.188 5.188 0 0 0-.265 1.004c-.059.364-.09.763-.09 1.2 0 .436.031.835.09 1.2.06.364.15.697.265 1.003.116.302.256.576.418.825a4.131 4.131 0 0 0 1.284 1.244c.261.162.548.302.857.414.305.112.632.2.972.259a6.463 6.463 0 0 0 2.125 0c.34-.06.667-.147.972-.259.306-.112.593-.252.854-.414a4.125 4.125 0 0 0 1.284-1.244 4.36 4.36 0 0 0 .418-.825c.115-.306.205-.642.265-1.004.059-.364.09-.763.09-1.2 0-.436-.031-.835-.09-1.2a5.248 5.248 0 0 0-.265-1.003 4.082 4.082 0 0 0-1.701-2.07 4.842 4.842 0 0 0-.858-.413zm-4.848-2.347a8.108 8.108 0 0 1 1.37-.355 8.78 8.78 0 0 1 2.886 0c.477.08.935.2 1.372.355.445.16.869.355 1.265.583.399.23.776.498 1.115.795.384.33.73.704 1.029 1.121.293.409.542.854.744 1.334.197.468.346.976.446 1.518.097.53.15 1.09.15 1.68 0 .591-.05 1.152-.15 1.68-.1.541-.25 1.046-.446 1.517-.199.483-.448.928-.744 1.333a6.63 6.63 0 0 1-1.029 1.122 7.297 7.297 0 0 1-1.115.795 7.3 7.3 0 0 1-1.265.583 8.11 8.11 0 0 1-1.372.355 8.778 8.778 0 0 1-2.885 0 8.11 8.11 0 0 1-1.371-.355 7.798 7.798 0 0 1-1.266-.583 6.824 6.824 0 0 1-1.115-.798 6.515 6.515 0 0 1-1.77-2.456 7.349 7.349 0 0 1-.446-1.517 9.356 9.356 0 0 1-.15-1.68c0-.589.05-1.15.15-1.68.1-.542.25-1.05.446-1.517a6.514 6.514 0 0 1 1.77-2.456 7.297 7.297 0 0 1 2.38-1.38zm-11.437 2.319a4.889 4.889 0 0 0-.941-.237 6.927 6.927 0 0 0-1.084-.081c-.586 0-1.11.028-1.59.09a7.292 7.292 0 0 0-2.518.78c-.349.183-.698.398-1.062.65v6.834c.274.228.567.44.879.633a7.133 7.133 0 0 0 2.468.941c.48.087.994.137 1.548.137.356 0 .695-.025 1.016-.075.327-.05.636-.121.923-.218a4.73 4.73 0 0 0 .8-.352 3.78 3.78 0 0 0 .674-.477 4.141 4.141 0 0 0 1.14-1.633c.128-.32.228-.679.296-1.065.066-.374.1-.78.1-1.213 0-.417-.028-.81-.081-1.174a5.99 5.99 0 0 0-.24-1.035l-.003-.006a4.76 4.76 0 0 0-.393-.876 3.861 3.861 0 0 0-.533-.717 3.332 3.332 0 0 0-.632-.523 3.907 3.907 0 0 0-.776-.383zm-9.804 15.547V42.572c0-.134.057-.259.144-.35a.49.49 0 0 1 .349-.146h1.084a.496.496 0 0 1 .47.353l.278.934c.256-.19.52-.358.798-.51a7.49 7.49 0 0 1 1.271-.55 9.246 9.246 0 0 1 1.596-.357 13.148 13.148 0 0 1 1.792-.116 9.94 9.94 0 0 1 1.573.125c.502.084.982.209 1.43.377.453.168.873.377 1.26.626.383.25.738.54 1.05.867.318.333.607.71.86 1.125.246.405.455.841.623 1.315.162.455.287.944.371 1.467.081.508.125 1.044.125 1.605 0 .555-.047 1.088-.137 1.593a8.065 8.065 0 0 1-.409 1.474 6.842 6.842 0 0 1-1.608 2.459l-.003.002c-.336.321-.71.608-1.115.857a7.017 7.017 0 0 1-1.297.624c-.452.165-.932.29-1.44.374a9.836 9.836 0 0 1-3.147-.003 9.194 9.194 0 0 1-1.508-.38 8.437 8.437 0 0 1-1.181-.512 7.929 7.929 0 0 1-.614-.361v4.705a.496.496 0 0 1-.492.496h-1.627a.492.492 0 0 1-.492-.492zm-7.357-15.52a5.627 5.627 0 0 0-.972-.258 6.456 6.456 0 0 0-2.125 0c-.34.06-.667.146-.973.259a4.637 4.637 0 0 0-.857.414 4.242 4.242 0 0 0-.72.561 3.962 3.962 0 0 0-.564.682c-.162.25-.302.524-.417.826a5.187 5.187 0 0 0-.265 1.004c-.06.364-.09.763-.09 1.2 0 .436.03.835.09 1.2.06.364.15.697.265 1.003.112.299.252.573.417.825.162.25.353.477.564.683.215.209.459.399.72.56.262.163.549.303.857.415.309.112.633.2.973.259a6.463 6.463 0 0 0 2.125 0c.34-.06.667-.147.972-.259.305-.112.592-.252.854-.414a4.122 4.122 0 0 0 1.701-2.07c.116-.305.206-.641.265-1.003.06-.364.09-.763.09-1.2 0-.436-.03-.835-.09-1.2a5.187 5.187 0 0 0-.265-1.003 4.082 4.082 0 0 0-1.701-2.07 4.735 4.735 0 0 0-.857-.413zm-4.849-2.346a8.114 8.114 0 0 1 1.371-.355 8.78 8.78 0 0 1 2.886 0c.477.08.935.2 1.371.355.446.16.87.355 1.265.583a7 7 0 0 1 1.116.795c.383.33.73.704 1.028 1.121.293.409.542.854.745 1.334.193.468.346.976.446 1.518.096.53.15 1.09.15 1.68 0 .592-.05 1.152-.15 1.68-.1.541-.25 1.046-.446 1.517-.2.483-.449.928-.745 1.333a6.63 6.63 0 0 1-1.028 1.122 7.296 7.296 0 0 1-1.116.795c-.396.23-.82.427-1.265.583a8.11 8.11 0 0 1-1.371.355 8.777 8.777 0 0 1-2.886 0 8.11 8.11 0 0 1-1.37-.355 7.798 7.798 0 0 1-1.266-.583 6.83 6.83 0 0 1-1.116-.798 6.514 6.514 0 0 1-1.77-2.456 7.346 7.346 0 0 1-.445-1.517 9.355 9.355 0 0 1-.15-1.68c0-.589.05-1.15.15-1.68.1-.542.249-1.05.445-1.517a6.515 6.515 0 0 1 1.77-2.456 7.298 7.298 0 0 1 2.38-1.38zm-15.35 2.247l-1.58 8.831c-.025.131-.06.268-.1.409a4.315 4.315 0 0 1-.118.336h7.718V44.56h-5.917zm-3.958 7.872l1.758-9.923a.49.49 0 0 1 .49-.427h9.75a.495.495 0 0 1 .495.492v11.56h.97a.495.495 0 0 1 .495.495v4.468a.495.495 0 0 1-.492.496h-1.22a.51.51 0 0 1-.326-.128.492.492 0 0 1-.162-.315l-.278-2.537h-11.33l-.275 2.522a.493.493 0 0 1-.492.458h-1.218a.5.5 0 0 1-.35-.144.49.49 0 0 1-.146-.349V54.71a.506.506 0 0 1 .137-.34.491.491 0 0 1 .33-.153c.325-.015.596-.068.817-.156.209-.08.374-.187.505-.324.137-.14.246-.32.33-.53.09-.22.16-.476.212-.763l.003-.015zm-13.964 1.698c.518.103 1.035.178 1.57.227.534.05 1.095.075 1.696.075.496 0 .954-.025 1.374-.068a9.07 9.07 0 0 0 1.206-.206c.371-.09.708-.203 1.013-.33.305-.131.577-.278.81-.443.21-.146.393-.308.546-.477.152-.171.28-.352.38-.539l.012-.025c.106-.202.184-.417.234-.642a3.735 3.735 0 0 0 .037-1.303 2.98 2.98 0 0 0-.118-.51c-.05-.156-.112-.3-.19-.437a2.232 2.232 0 0 0-.256-.37l-.006-.01a2.486 2.486 0 0 0-.953-.688l-.01-.004a3.287 3.287 0 0 0-.636-.183 4.16 4.16 0 0 0-.735-.063H75.26a.495.495 0 0 1-.495-.492v-1.437a.495.495 0 0 1 .492-.496h5.849a2.566 2.566 0 0 0 1.003-.196c.147-.062.284-.14.411-.23.122-.087.231-.187.325-.296a1.92 1.92 0 0 0 .33-.524l.003-.009a1.746 1.746 0 0 0 .115-.639c0-.18-.012-.349-.043-.505a1.784 1.784 0 0 0-.14-.43 1.386 1.386 0 0 0-.244-.355 1.79 1.79 0 0 0-.383-.315l-.012-.009a3.17 3.17 0 0 0-.608-.284 5.854 5.854 0 0 0-.845-.224c-.333-.065-.71-.115-1.134-.15-.424-.034-.9-.052-1.43-.052-.427 0-.848.018-1.256.059a14.465 14.465 0 0 0-2.527.473c-.421.119-.848.256-1.272.415h-.003a.49.49 0 0 1-.358-.01.503.503 0 0 1-.259-.249l-.573-1.253a.494.494 0 0 1 .255-.648c.44-.193.913-.37 1.415-.526.48-.147.985-.275 1.511-.377a16.877 16.877 0 0 1 1.593-.228c.542-.05 1.097-.078 1.664-.078.701 0 1.35.034 1.941.1.608.068 1.156.168 1.646.299.517.137.969.309 1.365.511.41.212.763.455 1.053.726l.022.019c.212.206.395.427.554.657.16.237.29.49.39.755.1.261.174.532.221.81.047.28.072.57.072.866a4.178 4.178 0 0 1-.137 1.103v.003c-.05.175-.11.343-.181.499a3.077 3.077 0 0 1-.252.455c-.078.115-.166.23-.26.346a3.642 3.642 0 0 1-.298.32l-.088.085.11.065a4.601 4.601 0 0 1 1.409 1.318l.02.029a4.907 4.907 0 0 1 .633 1.374c.069.24.122.495.156.76a5.856 5.856 0 0 1-.081 2.035 5.38 5.38 0 0 1-.395 1.147c-.169.349-.38.689-.642 1.006a5.49 5.49 0 0 1-.87.851l-.019.016c-.349.27-.754.52-1.212.738-.433.206-.92.384-1.455.524-.505.134-1.06.24-1.664.308-.58.069-1.206.103-1.876.103-.751 0-1.468-.034-2.153-.1a17.682 17.682 0 0 1-1.92-.286 13.893 13.893 0 0 1-1.708-.465 12.01 12.01 0 0 1-1.524-.635l-.04-.022-.006-.006a.496.496 0 0 1-.2-.24.481.481 0 0 1 .01-.377c.193-.44.395-.876.592-1.315a.48.48 0 0 1 .265-.265.48.48 0 0 1 .377-.003c.523.211 1.031.395 1.533.548.498.153 1 .284 1.517.383zm87.027-9.573c-.458-.05-.997-.05-1.558-.05h-4.082v3.076h4.49c.408 0 .726-.003.972-.016.247-.012.443-.034.605-.068.137-.032.252-.072.365-.131.115-.063.23-.147.358-.253l.012-.01a.827.827 0 0 0 .15-.161c.044-.066.081-.137.112-.215a1.49 1.49 0 0 0 .078-.3c.019-.112.025-.24.025-.383 0-.168-.012-.314-.034-.442a1.47 1.47 0 0 0-.097-.324.907.907 0 0 0-.14-.225.896.896 0 0 0-.187-.171l-.01-.006c-.252-.178-.62-.271-1.053-.318zm-1.343 5.475h-4.3v4.132h4.082c.449 0 .857-.015 1.221-.043.365-.029.69-.072.973-.131.27-.056.51-.125.713-.206.194-.078.359-.165.493-.265l.006-.006c.097-.075.178-.159.25-.25.068-.09.127-.19.174-.299.046-.112.084-.236.109-.377.025-.143.037-.302.037-.473 0-.215-.015-.409-.043-.583a1.683 1.683 0 0 0-.138-.449 1.172 1.172 0 0 0-.22-.324 1.477 1.477 0 0 0-.344-.258l-.015-.007a2.638 2.638 0 0 0-.486-.196 4.38 4.38 0 0 0-.63-.143 7.989 7.989 0 0 0-.829-.088 17.33 17.33 0 0 0-1.05-.028zM72.03 32.201V15.95a.487.487 0 0 1 .492-.492h1.624a.495.495 0 0 1 .495.492v6.357H78.7l3.045-4.774c.14-.227.283-.436.43-.626.15-.19.305-.362.467-.518a3.744 3.744 0 0 1 1.078-.729c.15-.068.302-.128.461-.174a4.443 4.443 0 0 1 .991-.175c.175-.012.346-.019.515-.019l.268.007.28.015.29.025.311.038a.492.492 0 0 1 .427.532l-.134 1.362a.498.498 0 0 1-.492.47h-.352c-.178 0-.334.004-.468.01a4.47 4.47 0 0 0-.39.034c-.108.016-.211.035-.308.063a1.573 1.573 0 0 0-.249.09l-.006.003a1.361 1.361 0 0 0-.443.3 3.266 3.266 0 0 0-.446.583l-3.022 4.614 6.027 8.464a.502.502 0 0 1 .1.296.495.495 0 0 1-.492.496h-2.064a.491.491 0 0 1-.402-.21L78.8 24.789h-4.151V32.2a.495.495 0 0 1-.147.35.495.495 0 0 1-.349.146H72.53a.495.495 0 0 1-.35-.147.495.495 0 0 1-.146-.349zm22.25.496h-.39a.486.486 0 0 1-.442-.28l-6.447-13.541a.656.656 0 0 1-.035-.103.506.506 0 0 1 .13-.458.496.496 0 0 1 .35-.146h1.82c.094 0 .184.028.262.078.075.05.14.118.18.205l5.526 11.767h.093l4.986-11.739a.472.472 0 0 1 .175-.22.513.513 0 0 1 .286-.091h1.814l.146.03.022.01a.491.491 0 0 1 .259.648l-6.716 15.491c-.102.246-.218.47-.336.67a4.474 4.474 0 0 1-.387.549 3.212 3.212 0 0 1-.931.757 3.098 3.098 0 0 1-.549.23c-.184.06-.374.103-.573.134-.193.032-.383.05-.574.06-.199.012-.386.015-.57.015-.059 0-.137-.003-.224-.012a4.26 4.26 0 0 1-.511-.078 4.552 4.552 0 0 1-.259-.062.502.502 0 0 1-.361-.546l.19-1.327a.483.483 0 0 1 .19-.321.486.486 0 0 1 .358-.097l.15.019c.124.015.23.031.333.031.094 0 .187-.003.274-.01.094-.006.187-.018.275-.034a1.617 1.617 0 0 0 .713-.314c.069-.056.134-.119.197-.19l.012-.02c.065-.077.128-.164.184-.258.056-.096.109-.2.156-.315l.224-.526zm10.315-3.862l1.835-10.23a.496.496 0 0 1 .49-.436h10.046a.495.495 0 0 1 .495.492v13.543a.495.495 0 0 1-.146.35.495.495 0 0 1-.349.146h-1.626a.49.49 0 0 1-.35-.147.49.49 0 0 1-.146-.349V20.646h-6.242l-1.608 9.156c-.053.277-.13.539-.23.779a3.332 3.332 0 0 1-.898 1.246 3.934 3.934 0 0 1-1.175.67 4.692 4.692 0 0 1-1.162.253 7.009 7.009 0 0 1-.62.03c-.097 0-.209-.002-.33-.012a7.33 7.33 0 0 1-.704-.09 3.514 3.514 0 0 1-.315-.072.5.5 0 0 1-.386-.524l.108-1.299a.476.476 0 0 1 .16-.32.49.49 0 0 1 .333-.132h.38c.215 0 .402-.003.554-.009.16-.006.309-.019.45-.037.13-.016.249-.038.351-.063.103-.025.2-.056.293-.093l.007-.003a.994.994 0 0 0 .495-.408c.065-.106.122-.228.168-.368.05-.147.09-.318.128-.511zm21.337 3.862h-5.444a.49.49 0 0 1-.35-.147.487.487 0 0 1-.143-.349V18.658c0-.134.056-.259.144-.35a.49.49 0 0 1 .349-.146h1.626a.492.492 0 0 1 .492.492v3.46h4.192c.427 0 .838.028 1.228.078.399.053.773.134 1.122.237.364.109.7.243 1.01.398.32.163.61.35.875.558l.003.003c.284.234.536.496.751.783.215.29.396.607.542.95.147.34.253.701.327 1.084.072.384.11.783.11 1.197 0 .362-.032.71-.097 1.047a4.653 4.653 0 0 1-.764 1.826 4.48 4.48 0 0 1-.657.742c-.296.274-.642.52-1.025.732a6.72 6.72 0 0 1-1.253.527c-.44.137-.92.24-1.434.311-.504.069-1.04.103-1.604.103zm-3.325-8.124v5.674h3.515c.411 0 .782-.025 1.118-.068.346-.047.661-.116.938-.206a3.5 3.5 0 0 0 .739-.327c.221-.131.405-.278.56-.437l.004-.003a2.087 2.087 0 0 0 .49-.751l.005-.018c.06-.153.1-.315.131-.483.028-.172.044-.356.044-.542 0-.228-.016-.443-.044-.636a2.772 2.772 0 0 0-.143-.549 2.16 2.16 0 0 0-.592-.857 2.792 2.792 0 0 0-.517-.333c-.2-.1-.421-.184-.667-.253a5.696 5.696 0 0 0-.83-.159 8.407 8.407 0 0 0-.965-.052zm15.696 7.631V20.646h-5.086a.495.495 0 0 1-.349-.146.496.496 0 0 1-.146-.35v-1.489a.495.495 0 0 1 .492-.495h12.783a.495.495 0 0 1 .495.492v1.49a.49.49 0 0 1-.146.349.49.49 0 0 1-.349.146h-5.086v11.558a.495.495 0 0 1-.146.349.495.495 0 0 1-.35.147h-1.623a.495.495 0 0 1-.349-.147.495.495 0 0 1-.146-.349zm15.902.496a.486.486 0 0 1-.443-.28l-6.447-13.544a.656.656 0 0 1-.034-.103.506.506 0 0 1 .13-.458.496.496 0 0 1 .35-.146h1.82c.093 0 .184.028.261.078.078.05.14.118.181.205l5.525 11.767h.094l4.986-11.739a.472.472 0 0 1 .174-.22.513.513 0 0 1 .287-.091h1.814l.146.03.022.01a.491.491 0 0 1 .258.648l-6.715 15.491c-.103.246-.218.47-.337.67a4.474 4.474 0 0 1-.386.549 3.213 3.213 0 0 1-.932.757 3.098 3.098 0 0 1-.548.23c-.184.06-.374.103-.574.134-.193.032-.383.05-.573.06-.2.012-.39.015-.57.015-.06 0-.137-.003-.225-.012a4.262 4.262 0 0 1-.51-.078 5.431 5.431 0 0 1-.262-.062.502.502 0 0 1-.362-.546l.19-1.327a.502.502 0 0 1 .548-.42l.15.018c.125.015.23.03.334.03.093 0 .187-.002.274-.008.093-.007.187-.02.274-.035a1.62 1.62 0 0 0 .717-.318c.065-.053.13-.115.193-.187l.016-.021a1.83 1.83 0 0 0 .184-.26c.056-.096.109-.198.155-.314l.223-.523zm10.748 3.563v.005zm0-17.599a.496.496 0 0 1 .492-.495h1.085a.5.5 0 0 1 .293.096c.08.063.146.15.177.256l.278.935c.255-.19.52-.359.797-.511a7.477 7.477 0 0 1 1.272-.549 9.195 9.195 0 0 1 1.595-.358 13.168 13.168 0 0 1 1.792-.115c.542 0 1.07.043 1.574.124a7.71 7.71 0 0 1 1.43.377c.452.168.873.377 1.26.627.383.249.738.539 1.05.866.317.333.607.71.86 1.125.246.405.454.841.623 1.315.162.455.286.944.37 1.468.082.508.125 1.044.125 1.604 0 .555-.047 1.088-.137 1.593a8.065 8.065 0 0 1-.408 1.474 6.848 6.848 0 0 1-1.608 2.459l-.003.003a6.585 6.585 0 0 1-1.116.857 7.012 7.012 0 0 1-1.296.623c-.452.165-.932.29-1.44.374a9.846 9.846 0 0 1-3.147-.003 9.21 9.21 0 0 1-1.509-.38 8.229 8.229 0 0 1-1.794-.873v4.705a.493.493 0 0 1-.495.492h-1.624a.506.506 0 0 1-.35-.142.49.49 0 0 1-.146-.346zm0 17.597v.001zm9.804-15.54a4.901 4.901 0 0 0-.941-.237 6.916 6.916 0 0 0-1.085-.081c-.586 0-1.11.028-1.59.09a7.278 7.278 0 0 0-2.518.78 9.966 9.966 0 0 0-1.062.65v6.832c.275.227.567.439.88.632a7.143 7.143 0 0 0 2.467.941c.48.088.994.137 1.549.137.355 0 .695-.025 1.016-.074a5.37 5.37 0 0 0 .919-.219c.28-.093.549-.211.798-.352a4.138 4.138 0 0 0 1.814-2.11c.127-.32.227-.679.295-1.065.066-.374.1-.78.1-1.212 0-.418-.028-.81-.08-1.175a5.99 5.99 0 0 0-.24-1.035l-.004-.006a4.759 4.759 0 0 0-.393-.876 3.856 3.856 0 0 0-.532-.716 3.23 3.23 0 0 0-.633-.524 3.906 3.906 0 0 0-.776-.383zm14.73 4.31a42.17 42.17 0 0 0-1.508-.025 8.58 8.58 0 0 0-.95.053c-.3.034-.59.087-.86.159-.253.065-.496.15-.72.249-.21.093-.403.2-.577.324l-.016.013a2.234 2.234 0 0 0-.701.816 2.04 2.04 0 0 0-.174.514 2.995 2.995 0 0 0 .01 1.228c.043.196.111.37.195.53l.013.018c.084.156.187.3.305.43.125.138.268.262.427.374.184.125.39.231.614.324.237.1.496.181.767.243.296.072.604.122.919.156a10.249 10.249 0 0 0 2.455-.046 7.027 7.027 0 0 0 1.2-.293 7.59 7.59 0 0 0 1.082-.468c.324-.168.648-.355.984-.567V25.37c-.358-.05-.698-.096-1.034-.14-.4-.05-.776-.09-1.156-.125a23.656 23.656 0 0 0-1.278-.078zm4.166-5.616a4.17 4.17 0 0 1 1.596 3.282v5.74c0 .65.025 1.227.118 1.782.09.555.247 1.094.508 1.68l.125.28-1.4.48-.124-.115A4.713 4.713 0 0 1 193.398 31a7.931 7.931 0 0 1-2.216 1.219c-.91.327-1.92.51-3.01.51-1.128 0-2.085-.083-2.917-.286-.844-.206-1.558-.533-2.184-1.019a4.082 4.082 0 0 1-1.244-1.57c-.264-.596-.41-1.297-.41-2.12 0-.803.174-1.501.488-2.106.337-.648.835-1.184 1.446-1.617a6.695 6.695 0 0 1 2.073-.942 9.549 9.549 0 0 1 2.505-.33c.941 0 1.798.04 2.683.156.78.1 1.57.256 2.45.49v-.742c0-.402-.097-.745-.269-1.035a2.289 2.289 0 0 0-.81-.78c-.34-.205-.794-.354-1.28-.457a8.892 8.892 0 0 0-1.774-.18c-1.094 0-1.926.052-2.73.195-.807.144-1.592.378-2.59.736l-.273.1-.546-1.711.23-.103c.967-.427 1.911-.745 2.874-.954a13.792 13.792 0 0 1 2.982-.314c1 0 1.92.118 2.711.33.845.224 1.55.552 2.066.947l.004.003zm-30.043 22.84c.361.068.71.161 1.038.292.33.13.638.3.91.508a3.145 3.145 0 0 1 .96 1.206c.112.246.199.517.255.816.06.296.09.62.09.97 0 .19-.015.374-.04.551a3.135 3.135 0 0 1-.125.517 2.762 2.762 0 0 1-.486.888 3.04 3.04 0 0 1-.586.555c.094.047.184.097.277.153.178.103.346.218.502.34.156.121.302.252.433.392l.003.003a3.3 3.3 0 0 1 .689 1.178c.075.222.131.455.172.705.037.246.056.508.056.782 0 .37-.035.723-.103 1.053a3.648 3.648 0 0 1-.838 1.72 3.906 3.906 0 0 1-.733.636l-.01.006a5.082 5.082 0 0 1-.99.502c-.358.137-.757.25-1.19.336-.427.085-.882.147-1.365.187-.487.04-1.004.06-1.55.06h-6.01a.495.495 0 0 1-.35-.147.495.495 0 0 1-.146-.349V42.572a.495.495 0 0 1 .492-.496h6.445c.364 0 .735.01 1.11.035.37.025.735.068 1.087.134z"/></g></g></g><g><g opacity=".72"><path fill="#0096c8" d="M52.733 29.795a48.265 48.265 0 0 0 5.536 7.754v2.849a51.696 51.696 0 0 1-5.536-.58zM24.118 21.84zm0 0c.053-.12.175-.251.387-.43.374-.312.826-.545 1.106-.293.502.45 1 .775 1.487 1.263-.24-1.506-.268-3.149.412-4.556.514-1.061 1.368-1.745 2.68-2.343.714-.325 1.462-.616 1.977-.886 1.028-.54 1.973-1.22 2.07-2.054.997.11 2.035.797 2.583 1.748.798 1.385.823 3.259.137 4.67a5.408 5.408 0 0 1-1.86 2.158c-2.26 1.523-3.538 1.011-5.73 1.508a6.414 6.414 0 0 0-1.577.558c.714.932 1.509 3.376 1.858 4.7l.025-.043c1.976-2.514 4.504-3.066 6.945-3.038h.034c5.346.086 10.414 6.212 8.304 13.107-6.4-2.164-12.007-5.647-16.371-10.25-.586-1.778-1.555-4.077-3.08-4.559-.324-.104-.514-.098-.685-.165-.24-.359-.474-.724-.702-1.095zm-5.277-18.8L29.14 0l18.446 5.445a35.227 35.227 0 0 0-.283 6.065L29.137 6.15l-9.763 2.882a40.065 40.065 0 0 1-.536-5.99z"/></g><g><path fill="#0096c8" d="M47.583 5.448a35.23 35.23 0 0 0-.283 6.065l5.433 1.603V29.8a48.263 48.263 0 0 0 5.536 7.753V8.603L47.583 5.451z"/></g><g><path fill="#0096c8" d="M58.262 42.992c-3.618 3.087-7.537 5.561-11.61 7.38a46.2 46.2 0 0 1-4.2 3.332c-3.846 2.698-8.702 5.356-13.312 7.018-4.61-1.662-9.467-4.317-13.313-7.012-2.25-1.579-5.648-4.286-7.914-7.278a41.237 41.237 0 0 1-4.102-3.548A27.308 27.308 0 0 1 0 38.163v4.546c0 6.047 8.205 12.853 12.706 16.008 4.75 3.33 10.741 6.607 16.436 8.658 5.692-2.05 11.686-5.334 16.436-8.664 4.426-3.106 12.437-9.744 12.687-15.716z"/></g><g opacity=".49"><path fill="#0096c8" d="M24.209 22.293c-.113-.175-.156-.304-.09-.454.227.371.46.736.7 1.095-.177-.07-.34-.218-.61-.641zm20.747 15.615c-1.406 4.596-5.997 9.532-15.822 13.248-23.6-10.415-16.427-26.211-7.519-26.355h.035c2.44-.028 4.968.524 6.944 3.038l.103.166c-.034-.114-.075-.227-.112-.347 4.364 4.603 9.971 8.085 16.37 10.25zm1.695 12.463zm0 0c3.077-2.762 6.082-6.334 6.082-9.627v-.926a51.7 51.7 0 0 0 5.536.58v2.311c0 .092-.004.187-.007.283-3.619 3.087-7.537 5.564-11.61 7.38zM0 8.601l18.84-5.56c.03 2.067.214 4.066.535 5.991l-13.84 4.084v27.628c0 1.873.973 3.836 2.376 5.688a41.945 41.945 0 0 1-4.102-3.548c-1.443-1.42-2.703-3.01-3.81-4.73z"/></g></g></g></g></svg>